# MagicaVoxel @ Ephtracy

# material
mtllib DroneBallProjectile-orang.mtl
usemtl palette

# normals
vn -1 0 0
vn 1 0 0
vn 0 0 1
vn 0 0 -1
vn 0 -1 0
vn 0 1 0

# texcoords
vt 0.0214844 0.5
vt 0.0292969 0.5
vt 0.0839844 0.5
vt 0.0957031 0.5
vt 0.0996094 0.5
vt 0.103516 0.5
vt 0.107422 0.5
vt 0.306641 0.5

# verts
v -3.5 2 1.5
v -3.5 2 -1.5
v -3.5 3 0.5
v -3.5 3 -0.5
v -3.5 4 0.5
v -3.5 4 -0.5
v -3.5 5 1.5
v -3.5 5 -1.5
v -2.5 1 2.5
v -2.5 1 1.5
v -2.5 1 -1.5
v -2.5 1 -2.5
v -2.5 2 2.5
v -2.5 2 1.5
v -2.5 2 -1.5
v -2.5 2 -2.5
v -2.5 5 2.5
v -2.5 5 1.5
v -2.5 5 -1.5
v -2.5 5 -2.5
v -2.5 6 2.5
v -2.5 6 1.5
v -2.5 6 -1.5
v -2.5 6 -2.5
v -1.5 0 1.5
v -1.5 0 -1.5
v -1.5 1 1.5
v -1.5 1 -1.5
v -1.5 2 3.5
v -1.5 2 2.5
v -1.5 2 -2.5
v -1.5 2 -3.5
v -1.5 5 3.5
v -1.5 5 2.5
v -1.5 5 -2.5
v -1.5 5 -3.5
v -1.5 6 1.5
v -1.5 6 -1.5
v -1.5 7 1.5
v -1.5 7 -1.5
v 1.5 0 1.5
v 1.5 0 -1.5
v 1.5 1 1.5
v 1.5 1 -1.5
v 1.5 2 3.5
v 1.5 2 2.5
v 1.5 2 -2.5
v 1.5 2 -3.5
v 1.5 5 3.5
v 1.5 5 2.5
v 1.5 5 -2.5
v 1.5 5 -3.5
v 1.5 6 1.5
v 1.5 6 -1.5
v 1.5 7 1.5
v 1.5 7 -1.5
v 2.5 1 2.5
v 2.5 1 1.5
v 2.5 1 -1.5
v 2.5 1 -2.5
v 2.5 2 2.5
v 2.5 2 1.5
v 2.5 2 -1.5
v 2.5 2 -2.5
v 2.5 5 2.5
v 2.5 5 1.5
v 2.5 5 -1.5
v 2.5 5 -2.5
v 2.5 6 2.5
v 2.5 6 1.5
v 2.5 6 -1.5
v 2.5 6 -2.5
v 3.5 2 1.5
v 3.5 2 -1.5
v 3.5 3 0.5
v 3.5 3 -0.5
v 3.5 4 0.5
v 3.5 4 -0.5
v 3.5 5 1.5
v 3.5 5 -1.5
v -1.5 2 3.5
v -1.5 5 3.5
v -0.5 3 3.5
v -0.5 4 3.5
v 0.5 3 3.5
v 0.5 4 3.5
v 1.5 2 3.5
v 1.5 5 3.5
v -2.5 1 2.5
v -2.5 2 2.5
v -2.5 5 2.5
v -2.5 6 2.5
v -1.5 1 2.5
v -1.5 2 2.5
v -1.5 5 2.5
v -1.5 6 2.5
v 1.5 1 2.5
v 1.5 2 2.5
v 1.5 5 2.5
v 1.5 6 2.5
v 2.5 1 2.5
v 2.5 2 2.5
v 2.5 5 2.5
v 2.5 6 2.5
v -3.5 2 1.5
v -3.5 5 1.5
v -2.5 2 1.5
v -2.5 5 1.5
v -1.5 0 1.5
v -1.5 1 1.5
v -1.5 6 1.5
v -1.5 7 1.5
v 1.5 0 1.5
v 1.5 1 1.5
v 1.5 6 1.5
v 1.5 7 1.5
v 2.5 2 1.5
v 2.5 5 1.5
v 3.5 2 1.5
v 3.5 5 1.5
v -3.5 2 -1.5
v -3.5 5 -1.5
v -2.5 2 -1.5
v -2.5 5 -1.5
v -1.5 0 -1.5
v -1.5 1 -1.5
v -1.5 6 -1.5
v -1.5 7 -1.5
v 1.5 0 -1.5
v 1.5 1 -1.5
v 1.5 6 -1.5
v 1.5 7 -1.5
v 2.5 2 -1.5
v 2.5 5 -1.5
v 3.5 2 -1.5
v 3.5 5 -1.5
v -2.5 1 -2.5
v -2.5 2 -2.5
v -2.5 5 -2.5
v -2.5 6 -2.5
v -1.5 1 -2.5
v -1.5 2 -2.5
v -1.5 5 -2.5
v -1.5 6 -2.5
v 1.5 1 -2.5
v 1.5 2 -2.5
v 1.5 5 -2.5
v 1.5 6 -2.5
v 2.5 1 -2.5
v 2.5 2 -2.5
v 2.5 5 -2.5
v 2.5 6 -2.5
v -1.5 2 -3.5
v -1.5 5 -3.5
v -0.5 3 -3.5
v -0.5 4 -3.5
v 0.5 3 -3.5
v 0.5 4 -3.5
v 1.5 2 -3.5
v 1.5 5 -3.5
v -1.5 0 1.5
v 1.5 0 1.5
v -0.5 0 0.5
v 0.5 0 0.5
v -0.5 0 -0.5
v 0.5 0 -0.5
v -1.5 0 -1.5
v 1.5 0 -1.5
v -2.5 1 2.5
v -1.5 1 2.5
v 1.5 1 2.5
v 2.5 1 2.5
v -2.5 1 1.5
v -1.5 1 1.5
v 1.5 1 1.5
v 2.5 1 1.5
v -2.5 1 -1.5
v -1.5 1 -1.5
v 1.5 1 -1.5
v 2.5 1 -1.5
v -2.5 1 -2.5
v -1.5 1 -2.5
v 1.5 1 -2.5
v 2.5 1 -2.5
v -1.5 2 3.5
v 1.5 2 3.5
v -1.5 2 2.5
v 1.5 2 2.5
v -3.5 2 1.5
v -2.5 2 1.5
v 2.5 2 1.5
v 3.5 2 1.5
v -3.5 2 -1.5
v -2.5 2 -1.5
v 2.5 2 -1.5
v 3.5 2 -1.5
v -1.5 2 -2.5
v 1.5 2 -2.5
v -1.5 2 -3.5
v 1.5 2 -3.5
v -1.5 5 3.5
v 1.5 5 3.5
v -1.5 5 2.5
v 1.5 5 2.5
v -3.5 5 1.5
v -2.5 5 1.5
v 2.5 5 1.5
v 3.5 5 1.5
v -3.5 5 -1.5
v -2.5 5 -1.5
v 2.5 5 -1.5
v 3.5 5 -1.5
v -1.5 5 -2.5
v 1.5 5 -2.5
v -1.5 5 -3.5
v 1.5 5 -3.5
v -2.5 6 2.5
v -1.5 6 2.5
v 1.5 6 2.5
v 2.5 6 2.5
v -2.5 6 1.5
v -1.5 6 1.5
v 1.5 6 1.5
v 2.5 6 1.5
v -2.5 6 -1.5
v -1.5 6 -1.5
v 1.5 6 -1.5
v 2.5 6 -1.5
v -2.5 6 -2.5
v -1.5 6 -2.5
v 1.5 6 -2.5
v 2.5 6 -2.5
v -1.5 7 1.5
v 1.5 7 1.5
v -0.5 7 0.5
v 0.5 7 0.5
v -0.5 7 -0.5
v 0.5 7 -0.5
v -1.5 7 -1.5
v 1.5 7 -1.5

# faces
f 3/5/1 2/5/1 1/5/1
f 4/5/1 2/5/1 3/5/1
f 5/5/1 3/5/1 1/5/1
f 5/4/1 4/4/1 3/4/1
f 6/5/1 2/5/1 4/5/1
f 6/4/1 4/4/1 5/4/1
f 7/5/1 5/5/1 1/5/1
f 7/5/1 6/5/1 5/5/1
f 8/5/1 2/5/1 6/5/1
f 8/5/1 6/5/1 7/5/1
f 13/7/1 10/7/1 9/7/1
f 14/6/1 11/6/1 10/6/1
f 14/7/1 10/7/1 13/7/1
f 15/7/1 12/7/1 11/7/1
f 15/6/1 11/6/1 14/6/1
f 16/7/1 12/7/1 15/7/1
f 17/6/1 14/6/1 13/6/1
f 18/6/1 14/6/1 17/6/1
f 19/6/1 16/6/1 15/6/1
f 20/6/1 16/6/1 19/6/1
f 21/7/1 18/7/1 17/7/1
f 22/6/1 19/6/1 18/6/1
f 22/7/1 18/7/1 21/7/1
f 23/7/1 20/7/1 19/7/1
f 23/6/1 19/6/1 22/6/1
f 24/7/1 20/7/1 23/7/1
f 27/5/1 26/5/1 25/5/1
f 28/5/1 26/5/1 27/5/1
f 33/5/1 30/5/1 29/5/1
f 34/5/1 30/5/1 33/5/1
f 35/5/1 32/5/1 31/5/1
f 36/5/1 32/5/1 35/5/1
f 39/5/1 38/5/1 37/5/1
f 40/5/1 38/5/1 39/5/1
f 41/5/2 42/5/2 43/5/2
f 43/5/2 42/5/2 44/5/2
f 45/5/2 46/5/2 49/5/2
f 49/5/2 46/5/2 50/5/2
f 47/5/2 48/5/2 51/5/2
f 51/5/2 48/5/2 52/5/2
f 53/5/2 54/5/2 55/5/2
f 55/5/2 54/5/2 56/5/2
f 57/7/2 58/7/2 61/7/2
f 58/6/2 59/6/2 62/6/2
f 61/7/2 58/7/2 62/7/2
f 59/7/2 60/7/2 63/7/2
f 62/6/2 59/6/2 63/6/2
f 63/7/2 60/7/2 64/7/2
f 61/6/2 62/6/2 65/6/2
f 65/6/2 62/6/2 66/6/2
f 63/6/2 64/6/2 67/6/2
f 67/6/2 64/6/2 68/6/2
f 65/7/2 66/7/2 69/7/2
f 66/6/2 67/6/2 70/6/2
f 69/7/2 66/7/2 70/7/2
f 67/7/2 68/7/2 71/7/2
f 70/6/2 67/6/2 71/6/2
f 71/7/2 68/7/2 72/7/2
f 73/5/2 74/5/2 75/5/2
f 75/5/2 74/5/2 76/5/2
f 73/5/2 75/5/2 77/5/2
f 75/4/2 76/4/2 77/4/2
f 76/5/2 74/5/2 78/5/2
f 77/4/2 76/4/2 78/4/2
f 73/5/2 77/5/2 79/5/2
f 77/5/2 78/5/2 79/5/2
f 78/5/2 74/5/2 80/5/2
f 79/5/2 78/5/2 80/5/2
f 83/5/3 82/5/3 81/5/3
f 84/5/3 82/5/3 83/5/3
f 85/5/3 83/5/3 81/5/3
f 85/4/3 84/4/3 83/4/3
f 86/5/3 82/5/3 84/5/3
f 86/4/3 84/4/3 85/4/3
f 87/5/3 85/5/3 81/5/3
f 87/5/3 86/5/3 85/5/3
f 88/5/3 82/5/3 86/5/3
f 88/5/3 86/5/3 87/5/3
f 93/7/3 90/7/3 89/7/3
f 94/6/3 91/6/3 90/6/3
f 94/7/3 90/7/3 93/7/3
f 95/7/3 92/7/3 91/7/3
f 95/6/3 91/6/3 94/6/3
f 96/7/3 92/7/3 95/7/3
f 97/6/3 94/6/3 93/6/3
f 98/6/3 94/6/3 97/6/3
f 99/6/3 96/6/3 95/6/3
f 100/6/3 96/6/3 99/6/3
f 101/7/3 98/7/3 97/7/3
f 102/6/3 99/6/3 98/6/3
f 102/7/3 98/7/3 101/7/3
f 103/7/3 100/7/3 99/7/3
f 103/6/3 99/6/3 102/6/3
f 104/7/3 100/7/3 103/7/3
f 107/5/3 106/5/3 105/5/3
f 108/5/3 106/5/3 107/5/3
f 113/5/3 110/5/3 109/5/3
f 114/5/3 110/5/3 113/5/3
f 115/5/3 112/5/3 111/5/3
f 116/5/3 112/5/3 115/5/3
f 119/5/3 118/5/3 117/5/3
f 120/5/3 118/5/3 119/5/3
f 121/5/4 122/5/4 123/5/4
f 123/5/4 122/5/4 124/5/4
f 125/5/4 126/5/4 129/5/4
f 129/5/4 126/5/4 130/5/4
f 127/5/4 128/5/4 131/5/4
f 131/5/4 128/5/4 132/5/4
f 133/5/4 134/5/4 135/5/4
f 135/5/4 134/5/4 136/5/4
f 137/7/4 138/7/4 141/7/4
f 138/6/4 139/6/4 142/6/4
f 141/7/4 138/7/4 142/7/4
f 139/7/4 140/7/4 143/7/4
f 142/6/4 139/6/4 143/6/4
f 143/7/4 140/7/4 144/7/4
f 141/6/4 142/6/4 145/6/4
f 145/6/4 142/6/4 146/6/4
f 143/6/4 144/6/4 147/6/4
f 147/6/4 144/6/4 148/6/4
f 145/7/4 146/7/4 149/7/4
f 146/6/4 147/6/4 150/6/4
f 149/7/4 146/7/4 150/7/4
f 147/7/4 148/7/4 151/7/4
f 150/6/4 147/6/4 151/6/4
f 151/7/4 148/7/4 152/7/4
f 153/5/4 154/5/4 155/5/4
f 155/5/4 154/5/4 156/5/4
f 153/5/4 155/5/4 157/5/4
f 155/4/4 156/4/4 157/4/4
f 156/5/4 154/5/4 158/5/4
f 157/4/4 156/4/4 158/4/4
f 153/5/4 157/5/4 159/5/4
f 157/5/4 158/5/4 159/5/4
f 158/5/4 154/5/4 160/5/4
f 159/5/4 158/5/4 160/5/4
f 163/5/5 162/5/5 161/5/5
f 164/5/5 162/5/5 163/5/5
f 165/5/5 163/5/5 161/5/5
f 165/4/5 164/4/5 163/4/5
f 166/5/5 162/5/5 164/5/5
f 166/4/5 164/4/5 165/4/5
f 167/5/5 165/5/5 161/5/5
f 167/5/5 166/5/5 165/5/5
f 168/5/5 162/5/5 166/5/5
f 168/5/5 166/5/5 167/5/5
f 173/7/5 170/7/5 169/7/5
f 174/6/5 171/6/5 170/6/5
f 174/7/5 170/7/5 173/7/5
f 175/7/5 172/7/5 171/7/5
f 175/6/5 171/6/5 174/6/5
f 176/7/5 172/7/5 175/7/5
f 177/6/5 174/6/5 173/6/5
f 178/6/5 174/6/5 177/6/5
f 179/6/5 176/6/5 175/6/5
f 180/6/5 176/6/5 179/6/5
f 181/7/5 178/7/5 177/7/5
f 182/6/5 179/6/5 178/6/5
f 182/7/5 178/7/5 181/7/5
f 183/7/5 180/7/5 179/7/5
f 183/6/5 179/6/5 182/6/5
f 184/7/5 180/7/5 183/7/5
f 187/5/5 186/5/5 185/5/5
f 188/5/5 186/5/5 187/5/5
f 193/5/5 190/5/5 189/5/5
f 194/5/5 190/5/5 193/5/5
f 195/5/5 192/5/5 191/5/5
f 196/5/5 192/5/5 195/5/5
f 199/5/5 198/5/5 197/5/5
f 200/5/5 198/5/5 199/5/5
f 201/5/6 202/5/6 203/5/6
f 203/5/6 202/5/6 204/5/6
f 205/5/6 206/5/6 209/5/6
f 209/5/6 206/5/6 210/5/6
f 207/5/6 208/5/6 211/5/6
f 211/5/6 208/5/6 212/5/6
f 213/5/6 214/5/6 215/5/6
f 215/5/6 214/5/6 216/5/6
f 217/7/6 218/7/6 221/7/6
f 218/6/6 219/6/6 222/6/6
f 221/7/6 218/7/6 222/7/6
f 219/7/6 220/7/6 223/7/6
f 222/6/6 219/6/6 223/6/6
f 223/7/6 220/7/6 224/7/6
f 221/6/6 222/6/6 225/6/6
f 225/6/6 222/6/6 226/6/6
f 223/6/6 224/6/6 227/6/6
f 227/6/6 224/6/6 228/6/6
f 225/7/6 226/7/6 229/7/6
f 226/6/6 227/6/6 230/6/6
f 229/7/6 226/7/6 230/7/6
f 227/7/6 228/7/6 231/7/6
f 230/6/6 227/6/6 231/6/6
f 231/7/6 228/7/6 232/7/6
f 233/5/6 234/5/6 235/5/6
f 235/5/6 234/5/6 236/5/6
f 233/5/6 235/5/6 237/5/6
f 235/4/6 236/4/6 237/4/6
f 236/5/6 234/5/6 238/5/6
f 237/4/6 236/4/6 238/4/6
f 233/5/6 237/5/6 239/5/6
f 237/5/6 238/5/6 239/5/6
f 238/5/6 234/5/6 240/5/6
f 239/5/6 238/5/6 240/5/6
