# MagicaVoxel @ Ephtracy

# material
mtllib DroneBallProjectile-Red.mtl
usemtl palette

# normals
vn -1 0 0
vn 1 0 0
vn 0 0 1
vn 0 0 -1
vn 0 -1 0
vn 0 1 0

# texcoords
vt 0.00195313 0.5
vt 0.00585938 0.5
vt 0.00976563 0.5
vt 0.0136719 0.5
vt 0.0214844 0.5
vt 0.0292969 0.5
vt 0.306641 0.5

# verts
v -3.5 2 1.5
v -3.5 2 -1.5
v -3.5 5 1.5
v -3.5 5 -1.5
v -2.5 1 2.5
v -2.5 1 1.5
v -2.5 1 0.5
v -2.5 1 -0.5
v -2.5 1 -1.5
v -2.5 1 -2.5
v -2.5 2 2.5
v -2.5 2 1.5
v -2.5 2 0.5
v -2.5 2 -0.5
v -2.5 2 -1.5
v -2.5 2 -2.5
v -2.5 3 2.5
v -2.5 3 1.5
v -2.5 3 -1.5
v -2.5 3 -2.5
v -2.5 4 2.5
v -2.5 4 1.5
v -2.5 4 -1.5
v -2.5 4 -2.5
v -2.5 5 2.5
v -2.5 5 1.5
v -2.5 5 0.5
v -2.5 5 -0.5
v -2.5 5 -1.5
v -2.5 5 -2.5
v -2.5 6 2.5
v -2.5 6 1.5
v -2.5 6 0.5
v -2.5 6 -0.5
v -2.5 6 -1.5
v -2.5 6 -2.5
v -1.5 0 1.5
v -1.5 0 -1.5
v -1.5 1 1.5
v -1.5 1 0.5
v -1.5 1 -0.5
v -1.5 1 -1.5
v -1.5 2 3.5
v -1.5 2 2.5
v -1.5 2 -2.5
v -1.5 2 -3.5
v -1.5 3 2.5
v -1.5 3 -2.5
v -1.5 4 2.5
v -1.5 4 -2.5
v -1.5 5 3.5
v -1.5 5 2.5
v -1.5 5 -2.5
v -1.5 5 -3.5
v -1.5 6 1.5
v -1.5 6 0.5
v -1.5 6 -0.5
v -1.5 6 -1.5
v -1.5 7 1.5
v -1.5 7 -1.5
v 1.5 0 1.5
v 1.5 0 -1.5
v 1.5 1 1.5
v 1.5 1 0.5
v 1.5 1 -0.5
v 1.5 1 -1.5
v 1.5 2 3.5
v 1.5 2 2.5
v 1.5 2 -2.5
v 1.5 2 -3.5
v 1.5 3 2.5
v 1.5 3 -2.5
v 1.5 4 2.5
v 1.5 4 -2.5
v 1.5 5 3.5
v 1.5 5 2.5
v 1.5 5 -2.5
v 1.5 5 -3.5
v 1.5 6 1.5
v 1.5 6 0.5
v 1.5 6 -0.5
v 1.5 6 -1.5
v 1.5 7 1.5
v 1.5 7 -1.5
v 2.5 1 2.5
v 2.5 1 1.5
v 2.5 1 0.5
v 2.5 1 -0.5
v 2.5 1 -1.5
v 2.5 1 -2.5
v 2.5 2 2.5
v 2.5 2 1.5
v 2.5 2 0.5
v 2.5 2 -0.5
v 2.5 2 -1.5
v 2.5 2 -2.5
v 2.5 3 2.5
v 2.5 3 1.5
v 2.5 3 -1.5
v 2.5 3 -2.5
v 2.5 4 2.5
v 2.5 4 1.5
v 2.5 4 -1.5
v 2.5 4 -2.5
v 2.5 5 2.5
v 2.5 5 1.5
v 2.5 5 0.5
v 2.5 5 -0.5
v 2.5 5 -1.5
v 2.5 5 -2.5
v 2.5 6 2.5
v 2.5 6 1.5
v 2.5 6 0.5
v 2.5 6 -0.5
v 2.5 6 -1.5
v 2.5 6 -2.5
v 3.5 2 1.5
v 3.5 2 -1.5
v 3.5 5 1.5
v 3.5 5 -1.5
v -1.5 2 3.5
v -1.5 5 3.5
v 1.5 2 3.5
v 1.5 5 3.5
v -2.5 1 2.5
v -2.5 2 2.5
v -2.5 3 2.5
v -2.5 4 2.5
v -2.5 5 2.5
v -2.5 6 2.5
v -1.5 1 2.5
v -1.5 2 2.5
v -1.5 3 2.5
v -1.5 4 2.5
v -1.5 5 2.5
v -1.5 6 2.5
v -0.5 1 2.5
v -0.5 2 2.5
v -0.5 5 2.5
v -0.5 6 2.5
v 0.5 1 2.5
v 0.5 2 2.5
v 0.5 5 2.5
v 0.5 6 2.5
v 1.5 1 2.5
v 1.5 2 2.5
v 1.5 3 2.5
v 1.5 4 2.5
v 1.5 5 2.5
v 1.5 6 2.5
v 2.5 1 2.5
v 2.5 2 2.5
v 2.5 3 2.5
v 2.5 4 2.5
v 2.5 5 2.5
v 2.5 6 2.5
v -3.5 2 1.5
v -3.5 5 1.5
v -2.5 2 1.5
v -2.5 3 1.5
v -2.5 4 1.5
v -2.5 5 1.5
v -1.5 0 1.5
v -1.5 1 1.5
v -1.5 6 1.5
v -1.5 7 1.5
v -0.5 1 1.5
v -0.5 6 1.5
v 0.5 1 1.5
v 0.5 6 1.5
v 1.5 0 1.5
v 1.5 1 1.5
v 1.5 6 1.5
v 1.5 7 1.5
v 2.5 2 1.5
v 2.5 3 1.5
v 2.5 4 1.5
v 2.5 5 1.5
v 3.5 2 1.5
v 3.5 5 1.5
v -3.5 2 -1.5
v -3.5 5 -1.5
v -2.5 2 -1.5
v -2.5 3 -1.5
v -2.5 4 -1.5
v -2.5 5 -1.5
v -1.5 0 -1.5
v -1.5 1 -1.5
v -1.5 6 -1.5
v -1.5 7 -1.5
v -0.5 1 -1.5
v -0.5 6 -1.5
v 0.5 1 -1.5
v 0.5 6 -1.5
v 1.5 0 -1.5
v 1.5 1 -1.5
v 1.5 6 -1.5
v 1.5 7 -1.5
v 2.5 2 -1.5
v 2.5 3 -1.5
v 2.5 4 -1.5
v 2.5 5 -1.5
v 3.5 2 -1.5
v 3.5 5 -1.5
v -2.5 1 -2.5
v -2.5 2 -2.5
v -2.5 3 -2.5
v -2.5 4 -2.5
v -2.5 5 -2.5
v -2.5 6 -2.5
v -1.5 1 -2.5
v -1.5 2 -2.5
v -1.5 3 -2.5
v -1.5 4 -2.5
v -1.5 5 -2.5
v -1.5 6 -2.5
v -0.5 1 -2.5
v -0.5 2 -2.5
v -0.5 5 -2.5
v -0.5 6 -2.5
v 0.5 1 -2.5
v 0.5 2 -2.5
v 0.5 5 -2.5
v 0.5 6 -2.5
v 1.5 1 -2.5
v 1.5 2 -2.5
v 1.5 3 -2.5
v 1.5 4 -2.5
v 1.5 5 -2.5
v 1.5 6 -2.5
v 2.5 1 -2.5
v 2.5 2 -2.5
v 2.5 3 -2.5
v 2.5 4 -2.5
v 2.5 5 -2.5
v 2.5 6 -2.5
v -1.5 2 -3.5
v -1.5 5 -3.5
v 1.5 2 -3.5
v 1.5 5 -3.5
v -1.5 0 1.5
v 1.5 0 1.5
v -1.5 0 -1.5
v 1.5 0 -1.5
v -2.5 1 2.5
v -1.5 1 2.5
v -0.5 1 2.5
v 0.5 1 2.5
v 1.5 1 2.5
v 2.5 1 2.5
v -2.5 1 1.5
v -1.5 1 1.5
v -0.5 1 1.5
v 0.5 1 1.5
v 1.5 1 1.5
v 2.5 1 1.5
v -2.5 1 0.5
v -1.5 1 0.5
v 1.5 1 0.5
v 2.5 1 0.5
v -2.5 1 -0.5
v -1.5 1 -0.5
v 1.5 1 -0.5
v 2.5 1 -0.5
v -2.5 1 -1.5
v -1.5 1 -1.5
v -0.5 1 -1.5
v 0.5 1 -1.5
v 1.5 1 -1.5
v 2.5 1 -1.5
v -2.5 1 -2.5
v -1.5 1 -2.5
v -0.5 1 -2.5
v 0.5 1 -2.5
v 1.5 1 -2.5
v 2.5 1 -2.5
v -1.5 2 3.5
v 1.5 2 3.5
v -1.5 2 2.5
v -0.5 2 2.5
v 0.5 2 2.5
v 1.5 2 2.5
v -3.5 2 1.5
v -2.5 2 1.5
v 2.5 2 1.5
v 3.5 2 1.5
v -2.5 2 0.5
v 2.5 2 0.5
v -2.5 2 -0.5
v 2.5 2 -0.5
v -3.5 2 -1.5
v -2.5 2 -1.5
v 2.5 2 -1.5
v 3.5 2 -1.5
v -1.5 2 -2.5
v -0.5 2 -2.5
v 0.5 2 -2.5
v 1.5 2 -2.5
v -1.5 2 -3.5
v 1.5 2 -3.5
v -1.5 5 3.5
v 1.5 5 3.5
v -1.5 5 2.5
v -0.5 5 2.5
v 0.5 5 2.5
v 1.5 5 2.5
v -3.5 5 1.5
v -2.5 5 1.5
v 2.5 5 1.5
v 3.5 5 1.5
v -2.5 5 0.5
v 2.5 5 0.5
v -2.5 5 -0.5
v 2.5 5 -0.5
v -3.5 5 -1.5
v -2.5 5 -1.5
v 2.5 5 -1.5
v 3.5 5 -1.5
v -1.5 5 -2.5
v -0.5 5 -2.5
v 0.5 5 -2.5
v 1.5 5 -2.5
v -1.5 5 -3.5
v 1.5 5 -3.5
v -2.5 6 2.5
v -1.5 6 2.5
v -0.5 6 2.5
v 0.5 6 2.5
v 1.5 6 2.5
v 2.5 6 2.5
v -2.5 6 1.5
v -1.5 6 1.5
v -0.5 6 1.5
v 0.5 6 1.5
v 1.5 6 1.5
v 2.5 6 1.5
v -2.5 6 0.5
v -1.5 6 0.5
v 1.5 6 0.5
v 2.5 6 0.5
v -2.5 6 -0.5
v -1.5 6 -0.5
v 1.5 6 -0.5
v 2.5 6 -0.5
v -2.5 6 -1.5
v -1.5 6 -1.5
v -0.5 6 -1.5
v 0.5 6 -1.5
v 1.5 6 -1.5
v 2.5 6 -1.5
v -2.5 6 -2.5
v -1.5 6 -2.5
v -0.5 6 -2.5
v 0.5 6 -2.5
v 1.5 6 -2.5
v 2.5 6 -2.5
v -1.5 7 1.5
v 1.5 7 1.5
v -1.5 7 -1.5
v 1.5 7 -1.5

# faces
f 3/1/1 2/1/1 1/1/1
f 4/1/1 2/1/1 3/1/1
f 11/4/1 6/4/1 5/4/1
f 12/2/1 7/2/1 6/2/1
f 12/4/1 6/4/1 11/4/1
f 13/3/1 8/3/1 7/3/1
f 13/2/1 7/2/1 12/2/1
f 14/2/1 9/2/1 8/2/1
f 14/3/1 8/3/1 13/3/1
f 15/4/1 10/4/1 9/4/1
f 15/2/1 9/2/1 14/2/1
f 16/4/1 10/4/1 15/4/1
f 17/2/1 12/2/1 11/2/1
f 18/2/1 12/2/1 17/2/1
f 19/2/1 16/2/1 15/2/1
f 20/2/1 16/2/1 19/2/1
f 21/3/1 18/3/1 17/3/1
f 22/3/1 18/3/1 21/3/1
f 23/3/1 20/3/1 19/3/1
f 24/3/1 20/3/1 23/3/1
f 25/2/1 22/2/1 21/2/1
f 26/2/1 22/2/1 25/2/1
f 29/2/1 24/2/1 23/2/1
f 30/2/1 24/2/1 29/2/1
f 31/4/1 26/4/1 25/4/1
f 32/2/1 27/2/1 26/2/1
f 32/4/1 26/4/1 31/4/1
f 33/3/1 28/3/1 27/3/1
f 33/2/1 27/2/1 32/2/1
f 34/2/1 29/2/1 28/2/1
f 34/3/1 28/3/1 33/3/1
f 35/4/1 30/4/1 29/4/1
f 35/2/1 29/2/1 34/2/1
f 36/4/1 30/4/1 35/4/1
f 39/1/1 38/1/1 37/1/1
f 40/1/1 38/1/1 39/1/1
f 41/1/1 38/1/1 40/1/1
f 42/1/1 38/1/1 41/1/1
f 47/1/1 44/1/1 43/1/1
f 48/1/1 46/1/1 45/1/1
f 49/1/1 47/1/1 43/1/1
f 50/1/1 46/1/1 48/1/1
f 51/1/1 49/1/1 43/1/1
f 52/1/1 49/1/1 51/1/1
f 53/1/1 46/1/1 50/1/1
f 54/1/1 46/1/1 53/1/1
f 59/1/1 56/1/1 55/1/1
f 59/1/1 58/1/1 57/1/1
f 59/1/1 57/1/1 56/1/1
f 60/1/1 58/1/1 59/1/1
f 61/1/2 62/1/2 63/1/2
f 63/1/2 62/1/2 64/1/2
f 64/1/2 62/1/2 65/1/2
f 65/1/2 62/1/2 66/1/2
f 67/1/2 68/1/2 71/1/2
f 69/1/2 70/1/2 72/1/2
f 67/1/2 71/1/2 73/1/2
f 72/1/2 70/1/2 74/1/2
f 67/1/2 73/1/2 75/1/2
f 75/1/2 73/1/2 76/1/2
f 74/1/2 70/1/2 77/1/2
f 77/1/2 70/1/2 78/1/2
f 79/1/2 80/1/2 83/1/2
f 81/1/2 82/1/2 83/1/2
f 80/1/2 81/1/2 83/1/2
f 83/1/2 82/1/2 84/1/2
f 85/4/2 86/4/2 91/4/2
f 86/2/2 87/2/2 92/2/2
f 91/4/2 86/4/2 92/4/2
f 87/3/2 88/3/2 93/3/2
f 92/2/2 87/2/2 93/2/2
f 88/2/2 89/2/2 94/2/2
f 93/3/2 88/3/2 94/3/2
f 89/4/2 90/4/2 95/4/2
f 94/2/2 89/2/2 95/2/2
f 95/4/2 90/4/2 96/4/2
f 91/2/2 92/2/2 97/2/2
f 97/2/2 92/2/2 98/2/2
f 95/2/2 96/2/2 99/2/2
f 99/2/2 96/2/2 100/2/2
f 97/3/2 98/3/2 101/3/2
f 101/3/2 98/3/2 102/3/2
f 99/3/2 100/3/2 103/3/2
f 103/3/2 100/3/2 104/3/2
f 101/2/2 102/2/2 105/2/2
f 105/2/2 102/2/2 106/2/2
f 103/2/2 104/2/2 109/2/2
f 109/2/2 104/2/2 110/2/2
f 105/4/2 106/4/2 111/4/2
f 106/2/2 107/2/2 112/2/2
f 111/4/2 106/4/2 112/4/2
f 107/3/2 108/3/2 113/3/2
f 112/2/2 107/2/2 113/2/2
f 108/2/2 109/2/2 114/2/2
f 113/3/2 108/3/2 114/3/2
f 109/4/2 110/4/2 115/4/2
f 114/2/2 109/2/2 115/2/2
f 115/4/2 110/4/2 116/4/2
f 117/1/2 118/1/2 119/1/2
f 119/1/2 118/1/2 120/1/2
f 123/1/3 122/1/3 121/1/3
f 124/1/3 122/1/3 123/1/3
f 131/4/3 126/4/3 125/4/3
f 132/2/3 127/2/3 126/2/3
f 132/4/3 126/4/3 131/4/3
f 133/3/3 128/3/3 127/3/3
f 133/2/3 127/2/3 132/2/3
f 134/2/3 129/2/3 128/2/3
f 134/3/3 128/3/3 133/3/3
f 135/4/3 130/4/3 129/4/3
f 135/2/3 129/2/3 134/2/3
f 136/4/3 130/4/3 135/4/3
f 137/2/3 132/2/3 131/2/3
f 138/2/3 132/2/3 137/2/3
f 139/2/3 136/2/3 135/2/3
f 140/2/3 136/2/3 139/2/3
f 141/3/3 138/3/3 137/3/3
f 142/3/3 138/3/3 141/3/3
f 143/3/3 140/3/3 139/3/3
f 144/3/3 140/3/3 143/3/3
f 145/2/3 142/2/3 141/2/3
f 146/2/3 142/2/3 145/2/3
f 149/2/3 144/2/3 143/2/3
f 150/2/3 144/2/3 149/2/3
f 151/4/3 146/4/3 145/4/3
f 152/2/3 147/2/3 146/2/3
f 152/4/3 146/4/3 151/4/3
f 153/3/3 148/3/3 147/3/3
f 153/2/3 147/2/3 152/2/3
f 154/2/3 149/2/3 148/2/3
f 154/3/3 148/3/3 153/3/3
f 155/4/3 150/4/3 149/4/3
f 155/2/3 149/2/3 154/2/3
f 156/4/3 150/4/3 155/4/3
f 159/1/3 158/1/3 157/1/3
f 160/1/3 158/1/3 159/1/3
f 161/1/3 158/1/3 160/1/3
f 162/1/3 158/1/3 161/1/3
f 167/1/3 164/1/3 163/1/3
f 168/1/3 166/1/3 165/1/3
f 169/1/3 167/1/3 163/1/3
f 170/1/3 166/1/3 168/1/3
f 171/1/3 169/1/3 163/1/3
f 172/1/3 169/1/3 171/1/3
f 173/1/3 166/1/3 170/1/3
f 174/1/3 166/1/3 173/1/3
f 179/1/3 176/1/3 175/1/3
f 179/1/3 178/1/3 177/1/3
f 179/1/3 177/1/3 176/1/3
f 180/1/3 178/1/3 179/1/3
f 181/1/4 182/1/4 183/1/4
f 183/1/4 182/1/4 184/1/4
f 184/1/4 182/1/4 185/1/4
f 185/1/4 182/1/4 186/1/4
f 187/1/4 188/1/4 191/1/4
f 189/1/4 190/1/4 192/1/4
f 187/1/4 191/1/4 193/1/4
f 192/1/4 190/1/4 194/1/4
f 187/1/4 193/1/4 195/1/4
f 195/1/4 193/1/4 196/1/4
f 194/1/4 190/1/4 197/1/4
f 197/1/4 190/1/4 198/1/4
f 199/1/4 200/1/4 203/1/4
f 201/1/4 202/1/4 203/1/4
f 200/1/4 201/1/4 203/1/4
f 203/1/4 202/1/4 204/1/4
f 205/4/4 206/4/4 211/4/4
f 206/2/4 207/2/4 212/2/4
f 211/4/4 206/4/4 212/4/4
f 207/3/4 208/3/4 213/3/4
f 212/2/4 207/2/4 213/2/4
f 208/2/4 209/2/4 214/2/4
f 213/3/4 208/3/4 214/3/4
f 209/4/4 210/4/4 215/4/4
f 214/2/4 209/2/4 215/2/4
f 215/4/4 210/4/4 216/4/4
f 211/2/4 212/2/4 217/2/4
f 217/2/4 212/2/4 218/2/4
f 215/2/4 216/2/4 219/2/4
f 219/2/4 216/2/4 220/2/4
f 217/3/4 218/3/4 221/3/4
f 221/3/4 218/3/4 222/3/4
f 219/3/4 220/3/4 223/3/4
f 223/3/4 220/3/4 224/3/4
f 221/2/4 222/2/4 225/2/4
f 225/2/4 222/2/4 226/2/4
f 223/2/4 224/2/4 229/2/4
f 229/2/4 224/2/4 230/2/4
f 225/4/4 226/4/4 231/4/4
f 226/2/4 227/2/4 232/2/4
f 231/4/4 226/4/4 232/4/4
f 227/3/4 228/3/4 233/3/4
f 232/2/4 227/2/4 233/2/4
f 228/2/4 229/2/4 234/2/4
f 233/3/4 228/3/4 234/3/4
f 229/4/4 230/4/4 235/4/4
f 234/2/4 229/2/4 235/2/4
f 235/4/4 230/4/4 236/4/4
f 237/1/4 238/1/4 239/1/4
f 239/1/4 238/1/4 240/1/4
f 243/1/5 242/1/5 241/1/5
f 244/1/5 242/1/5 243/1/5
f 251/4/5 246/4/5 245/4/5
f 252/2/5 247/2/5 246/2/5
f 252/4/5 246/4/5 251/4/5
f 253/3/5 248/3/5 247/3/5
f 253/2/5 247/2/5 252/2/5
f 254/2/5 249/2/5 248/2/5
f 254/3/5 248/3/5 253/3/5
f 255/4/5 250/4/5 249/4/5
f 255/2/5 249/2/5 254/2/5
f 256/4/5 250/4/5 255/4/5
f 257/2/5 252/2/5 251/2/5
f 258/2/5 252/2/5 257/2/5
f 259/2/5 256/2/5 255/2/5
f 260/2/5 256/2/5 259/2/5
f 261/3/5 258/3/5 257/3/5
f 262/3/5 258/3/5 261/3/5
f 263/3/5 260/3/5 259/3/5
f 264/3/5 260/3/5 263/3/5
f 265/2/5 262/2/5 261/2/5
f 266/2/5 262/2/5 265/2/5
f 269/2/5 264/2/5 263/2/5
f 270/2/5 264/2/5 269/2/5
f 271/4/5 266/4/5 265/4/5
f 272/2/5 267/2/5 266/2/5
f 272/4/5 266/4/5 271/4/5
f 273/3/5 268/3/5 267/3/5
f 273/2/5 267/2/5 272/2/5
f 274/2/5 269/2/5 268/2/5
f 274/3/5 268/3/5 273/3/5
f 275/4/5 270/4/5 269/4/5
f 275/2/5 269/2/5 274/2/5
f 276/4/5 270/4/5 275/4/5
f 279/1/5 278/1/5 277/1/5
f 280/1/5 278/1/5 279/1/5
f 281/1/5 278/1/5 280/1/5
f 282/1/5 278/1/5 281/1/5
f 287/1/5 284/1/5 283/1/5
f 288/1/5 286/1/5 285/1/5
f 289/1/5 287/1/5 283/1/5
f 290/1/5 286/1/5 288/1/5
f 291/1/5 289/1/5 283/1/5
f 292/1/5 289/1/5 291/1/5
f 293/1/5 286/1/5 290/1/5
f 294/1/5 286/1/5 293/1/5
f 299/1/5 296/1/5 295/1/5
f 299/1/5 298/1/5 297/1/5
f 299/1/5 297/1/5 296/1/5
f 300/1/5 298/1/5 299/1/5
f 301/1/6 302/1/6 303/1/6
f 303/1/6 302/1/6 304/1/6
f 304/1/6 302/1/6 305/1/6
f 305/1/6 302/1/6 306/1/6
f 307/1/6 308/1/6 311/1/6
f 309/1/6 310/1/6 312/1/6
f 307/1/6 311/1/6 313/1/6
f 312/1/6 310/1/6 314/1/6
f 307/1/6 313/1/6 315/1/6
f 315/1/6 313/1/6 316/1/6
f 314/1/6 310/1/6 317/1/6
f 317/1/6 310/1/6 318/1/6
f 319/1/6 320/1/6 323/1/6
f 321/1/6 322/1/6 323/1/6
f 320/1/6 321/1/6 323/1/6
f 323/1/6 322/1/6 324/1/6
f 325/4/6 326/4/6 331/4/6
f 326/2/6 327/2/6 332/2/6
f 331/4/6 326/4/6 332/4/6
f 327/3/6 328/3/6 333/3/6
f 332/2/6 327/2/6 333/2/6
f 328/2/6 329/2/6 334/2/6
f 333/3/6 328/3/6 334/3/6
f 329/4/6 330/4/6 335/4/6
f 334/2/6 329/2/6 335/2/6
f 335/4/6 330/4/6 336/4/6
f 331/2/6 332/2/6 337/2/6
f 337/2/6 332/2/6 338/2/6
f 335/2/6 336/2/6 339/2/6
f 339/2/6 336/2/6 340/2/6
f 337/3/6 338/3/6 341/3/6
f 341/3/6 338/3/6 342/3/6
f 339/3/6 340/3/6 343/3/6
f 343/3/6 340/3/6 344/3/6
f 341/2/6 342/2/6 345/2/6
f 345/2/6 342/2/6 346/2/6
f 343/2/6 344/2/6 349/2/6
f 349/2/6 344/2/6 350/2/6
f 345/4/6 346/4/6 351/4/6
f 346/2/6 347/2/6 352/2/6
f 351/4/6 346/4/6 352/4/6
f 347/3/6 348/3/6 353/3/6
f 352/2/6 347/2/6 353/2/6
f 348/2/6 349/2/6 354/2/6
f 353/3/6 348/3/6 354/3/6
f 349/4/6 350/4/6 355/4/6
f 354/2/6 349/2/6 355/2/6
f 355/4/6 350/4/6 356/4/6
f 357/1/6 358/1/6 359/1/6
f 359/1/6 358/1/6 360/1/6
