# MagicaVoxel @ Ephtracy

# material
mtllib DroneBallProjectile-IceBlue.mtl
usemtl palette

# normals
vn -1 0 0
vn 1 0 0
vn 0 0 1
vn 0 0 -1
vn 0 -1 0
vn 0 1 0

# texcoords
vt 0.0214844 0.5
vt 0.0292969 0.5
vt 0.0800781 0.5
vt 0.0839844 0.5
vt 0.0878906 0.5
vt 0.0917969 0.5
vt 0.306641 0.5

# verts
v -3.5 2 1.5
v -3.5 2 0.5
v -3.5 2 -0.5
v -3.5 2 -1.5
v -3.5 3 1.5
v -3.5 3 0.5
v -3.5 3 -0.5
v -3.5 3 -1.5
v -3.5 4 1.5
v -3.5 4 0.5
v -3.5 4 -0.5
v -3.5 4 -1.5
v -3.5 5 1.5
v -3.5 5 0.5
v -3.5 5 -0.5
v -3.5 5 -1.5
v -2.5 1 2.5
v -2.5 1 1.5
v -2.5 1 0.5
v -2.5 1 -0.5
v -2.5 1 -1.5
v -2.5 1 -2.5
v -2.5 2 2.5
v -2.5 2 1.5
v -2.5 2 0.5
v -2.5 2 -0.5
v -2.5 2 -1.5
v -2.5 2 -2.5
v -2.5 3 2.5
v -2.5 3 1.5
v -2.5 3 -1.5
v -2.5 3 -2.5
v -2.5 4 2.5
v -2.5 4 1.5
v -2.5 4 -1.5
v -2.5 4 -2.5
v -2.5 5 2.5
v -2.5 5 1.5
v -2.5 5 0.5
v -2.5 5 -0.5
v -2.5 5 -1.5
v -2.5 5 -2.5
v -2.5 6 2.5
v -2.5 6 1.5
v -2.5 6 0.5
v -2.5 6 -0.5
v -2.5 6 -1.5
v -2.5 6 -2.5
v -1.5 0 1.5
v -1.5 0 0.5
v -1.5 0 -0.5
v -1.5 0 -1.5
v -1.5 1 1.5
v -1.5 1 0.5
v -1.5 1 -0.5
v -1.5 1 -1.5
v -1.5 2 3.5
v -1.5 2 2.5
v -1.5 2 -2.5
v -1.5 2 -3.5
v -1.5 3 3.5
v -1.5 3 2.5
v -1.5 3 -2.5
v -1.5 3 -3.5
v -1.5 4 3.5
v -1.5 4 2.5
v -1.5 4 -2.5
v -1.5 4 -3.5
v -1.5 5 3.5
v -1.5 5 2.5
v -1.5 5 -2.5
v -1.5 5 -3.5
v -1.5 6 1.5
v -1.5 6 0.5
v -1.5 6 -0.5
v -1.5 6 -1.5
v -1.5 7 1.5
v -1.5 7 0.5
v -1.5 7 -0.5
v -1.5 7 -1.5
v 1.5 0 1.5
v 1.5 0 0.5
v 1.5 0 -0.5
v 1.5 0 -1.5
v 1.5 1 1.5
v 1.5 1 0.5
v 1.5 1 -0.5
v 1.5 1 -1.5
v 1.5 2 3.5
v 1.5 2 2.5
v 1.5 2 -2.5
v 1.5 2 -3.5
v 1.5 3 3.5
v 1.5 3 2.5
v 1.5 3 -2.5
v 1.5 3 -3.5
v 1.5 4 3.5
v 1.5 4 2.5
v 1.5 4 -2.5
v 1.5 4 -3.5
v 1.5 5 3.5
v 1.5 5 2.5
v 1.5 5 -2.5
v 1.5 5 -3.5
v 1.5 6 1.5
v 1.5 6 0.5
v 1.5 6 -0.5
v 1.5 6 -1.5
v 1.5 7 1.5
v 1.5 7 0.5
v 1.5 7 -0.5
v 1.5 7 -1.5
v 2.5 1 2.5
v 2.5 1 1.5
v 2.5 1 0.5
v 2.5 1 -0.5
v 2.5 1 -1.5
v 2.5 1 -2.5
v 2.5 2 2.5
v 2.5 2 1.5
v 2.5 2 0.5
v 2.5 2 -0.5
v 2.5 2 -1.5
v 2.5 2 -2.5
v 2.5 3 2.5
v 2.5 3 1.5
v 2.5 3 -1.5
v 2.5 3 -2.5
v 2.5 4 2.5
v 2.5 4 1.5
v 2.5 4 -1.5
v 2.5 4 -2.5
v 2.5 5 2.5
v 2.5 5 1.5
v 2.5 5 0.5
v 2.5 5 -0.5
v 2.5 5 -1.5
v 2.5 5 -2.5
v 2.5 6 2.5
v 2.5 6 1.5
v 2.5 6 0.5
v 2.5 6 -0.5
v 2.5 6 -1.5
v 2.5 6 -2.5
v 3.5 2 1.5
v 3.5 2 0.5
v 3.5 2 -0.5
v 3.5 2 -1.5
v 3.5 3 1.5
v 3.5 3 0.5
v 3.5 3 -0.5
v 3.5 3 -1.5
v 3.5 4 1.5
v 3.5 4 0.5
v 3.5 4 -0.5
v 3.5 4 -1.5
v 3.5 5 1.5
v 3.5 5 0.5
v 3.5 5 -0.5
v 3.5 5 -1.5
v -1.5 2 3.5
v -1.5 3 3.5
v -1.5 4 3.5
v -1.5 5 3.5
v -0.5 2 3.5
v -0.5 3 3.5
v -0.5 4 3.5
v -0.5 5 3.5
v 0.5 2 3.5
v 0.5 3 3.5
v 0.5 4 3.5
v 0.5 5 3.5
v 1.5 2 3.5
v 1.5 3 3.5
v 1.5 4 3.5
v 1.5 5 3.5
v -2.5 1 2.5
v -2.5 2 2.5
v -2.5 3 2.5
v -2.5 4 2.5
v -2.5 5 2.5
v -2.5 6 2.5
v -1.5 1 2.5
v -1.5 2 2.5
v -1.5 3 2.5
v -1.5 4 2.5
v -1.5 5 2.5
v -1.5 6 2.5
v -0.5 1 2.5
v -0.5 2 2.5
v -0.5 5 2.5
v -0.5 6 2.5
v 0.5 1 2.5
v 0.5 2 2.5
v 0.5 5 2.5
v 0.5 6 2.5
v 1.5 1 2.5
v 1.5 2 2.5
v 1.5 3 2.5
v 1.5 4 2.5
v 1.5 5 2.5
v 1.5 6 2.5
v 2.5 1 2.5
v 2.5 2 2.5
v 2.5 3 2.5
v 2.5 4 2.5
v 2.5 5 2.5
v 2.5 6 2.5
v -3.5 2 1.5
v -3.5 3 1.5
v -3.5 4 1.5
v -3.5 5 1.5
v -2.5 2 1.5
v -2.5 3 1.5
v -2.5 4 1.5
v -2.5 5 1.5
v -1.5 0 1.5
v -1.5 1 1.5
v -1.5 6 1.5
v -1.5 7 1.5
v -0.5 0 1.5
v -0.5 1 1.5
v -0.5 6 1.5
v -0.5 7 1.5
v 0.5 0 1.5
v 0.5 1 1.5
v 0.5 6 1.5
v 0.5 7 1.5
v 1.5 0 1.5
v 1.5 1 1.5
v 1.5 6 1.5
v 1.5 7 1.5
v 2.5 2 1.5
v 2.5 3 1.5
v 2.5 4 1.5
v 2.5 5 1.5
v 3.5 2 1.5
v 3.5 3 1.5
v 3.5 4 1.5
v 3.5 5 1.5
v -3.5 2 -1.5
v -3.5 3 -1.5
v -3.5 4 -1.5
v -3.5 5 -1.5
v -2.5 2 -1.5
v -2.5 3 -1.5
v -2.5 4 -1.5
v -2.5 5 -1.5
v -1.5 0 -1.5
v -1.5 1 -1.5
v -1.5 6 -1.5
v -1.5 7 -1.5
v -0.5 0 -1.5
v -0.5 1 -1.5
v -0.5 6 -1.5
v -0.5 7 -1.5
v 0.5 0 -1.5
v 0.5 1 -1.5
v 0.5 6 -1.5
v 0.5 7 -1.5
v 1.5 0 -1.5
v 1.5 1 -1.5
v 1.5 6 -1.5
v 1.5 7 -1.5
v 2.5 2 -1.5
v 2.5 3 -1.5
v 2.5 4 -1.5
v 2.5 5 -1.5
v 3.5 2 -1.5
v 3.5 3 -1.5
v 3.5 4 -1.5
v 3.5 5 -1.5
v -2.5 1 -2.5
v -2.5 2 -2.5
v -2.5 3 -2.5
v -2.5 4 -2.5
v -2.5 5 -2.5
v -2.5 6 -2.5
v -1.5 1 -2.5
v -1.5 2 -2.5
v -1.5 3 -2.5
v -1.5 4 -2.5
v -1.5 5 -2.5
v -1.5 6 -2.5
v -0.5 1 -2.5
v -0.5 2 -2.5
v -0.5 5 -2.5
v -0.5 6 -2.5
v 0.5 1 -2.5
v 0.5 2 -2.5
v 0.5 5 -2.5
v 0.5 6 -2.5
v 1.5 1 -2.5
v 1.5 2 -2.5
v 1.5 3 -2.5
v 1.5 4 -2.5
v 1.5 5 -2.5
v 1.5 6 -2.5
v 2.5 1 -2.5
v 2.5 2 -2.5
v 2.5 3 -2.5
v 2.5 4 -2.5
v 2.5 5 -2.5
v 2.5 6 -2.5
v -1.5 2 -3.5
v -1.5 3 -3.5
v -1.5 4 -3.5
v -1.5 5 -3.5
v -0.5 2 -3.5
v -0.5 3 -3.5
v -0.5 4 -3.5
v -0.5 5 -3.5
v 0.5 2 -3.5
v 0.5 3 -3.5
v 0.5 4 -3.5
v 0.5 5 -3.5
v 1.5 2 -3.5
v 1.5 3 -3.5
v 1.5 4 -3.5
v 1.5 5 -3.5
v -1.5 0 1.5
v -0.5 0 1.5
v 0.5 0 1.5
v 1.5 0 1.5
v -1.5 0 0.5
v -0.5 0 0.5
v 0.5 0 0.5
v 1.5 0 0.5
v -1.5 0 -0.5
v -0.5 0 -0.5
v 0.5 0 -0.5
v 1.5 0 -0.5
v -1.5 0 -1.5
v -0.5 0 -1.5
v 0.5 0 -1.5
v 1.5 0 -1.5
v -2.5 1 2.5
v -1.5 1 2.5
v -0.5 1 2.5
v 0.5 1 2.5
v 1.5 1 2.5
v 2.5 1 2.5
v -2.5 1 1.5
v -1.5 1 1.5
v -0.5 1 1.5
v 0.5 1 1.5
v 1.5 1 1.5
v 2.5 1 1.5
v -2.5 1 0.5
v -1.5 1 0.5
v 1.5 1 0.5
v 2.5 1 0.5
v -2.5 1 -0.5
v -1.5 1 -0.5
v 1.5 1 -0.5
v 2.5 1 -0.5
v -2.5 1 -1.5
v -1.5 1 -1.5
v -0.5 1 -1.5
v 0.5 1 -1.5
v 1.5 1 -1.5
v 2.5 1 -1.5
v -2.5 1 -2.5
v -1.5 1 -2.5
v -0.5 1 -2.5
v 0.5 1 -2.5
v 1.5 1 -2.5
v 2.5 1 -2.5
v -1.5 2 3.5
v -0.5 2 3.5
v 0.5 2 3.5
v 1.5 2 3.5
v -1.5 2 2.5
v -0.5 2 2.5
v 0.5 2 2.5
v 1.5 2 2.5
v -3.5 2 1.5
v -2.5 2 1.5
v 2.5 2 1.5
v 3.5 2 1.5
v -3.5 2 0.5
v -2.5 2 0.5
v 2.5 2 0.5
v 3.5 2 0.5
v -3.5 2 -0.5
v -2.5 2 -0.5
v 2.5 2 -0.5
v 3.5 2 -0.5
v -3.5 2 -1.5
v -2.5 2 -1.5
v 2.5 2 -1.5
v 3.5 2 -1.5
v -1.5 2 -2.5
v -0.5 2 -2.5
v 0.5 2 -2.5
v 1.5 2 -2.5
v -1.5 2 -3.5
v -0.5 2 -3.5
v 0.5 2 -3.5
v 1.5 2 -3.5
v -1.5 5 3.5
v -0.5 5 3.5
v 0.5 5 3.5
v 1.5 5 3.5
v -1.5 5 2.5
v -0.5 5 2.5
v 0.5 5 2.5
v 1.5 5 2.5
v -3.5 5 1.5
v -2.5 5 1.5
v 2.5 5 1.5
v 3.5 5 1.5
v -3.5 5 0.5
v -2.5 5 0.5
v 2.5 5 0.5
v 3.5 5 0.5
v -3.5 5 -0.5
v -2.5 5 -0.5
v 2.5 5 -0.5
v 3.5 5 -0.5
v -3.5 5 -1.5
v -2.5 5 -1.5
v 2.5 5 -1.5
v 3.5 5 -1.5
v -1.5 5 -2.5
v -0.5 5 -2.5
v 0.5 5 -2.5
v 1.5 5 -2.5
v -1.5 5 -3.5
v -0.5 5 -3.5
v 0.5 5 -3.5
v 1.5 5 -3.5
v -2.5 6 2.5
v -1.5 6 2.5
v -0.5 6 2.5
v 0.5 6 2.5
v 1.5 6 2.5
v 2.5 6 2.5
v -2.5 6 1.5
v -1.5 6 1.5
v -0.5 6 1.5
v 0.5 6 1.5
v 1.5 6 1.5
v 2.5 6 1.5
v -2.5 6 0.5
v -1.5 6 0.5
v 1.5 6 0.5
v 2.5 6 0.5
v -2.5 6 -0.5
v -1.5 6 -0.5
v 1.5 6 -0.5
v 2.5 6 -0.5
v -2.5 6 -1.5
v -1.5 6 -1.5
v -0.5 6 -1.5
v 0.5 6 -1.5
v 1.5 6 -1.5
v 2.5 6 -1.5
v -2.5 6 -2.5
v -1.5 6 -2.5
v -0.5 6 -2.5
v 0.5 6 -2.5
v 1.5 6 -2.5
v 2.5 6 -2.5
v -1.5 7 1.5
v -0.5 7 1.5
v 0.5 7 1.5
v 1.5 7 1.5
v -1.5 7 0.5
v -0.5 7 0.5
v 0.5 7 0.5
v 1.5 7 0.5
v -1.5 7 -0.5
v -0.5 7 -0.5
v 0.5 7 -0.5
v 1.5 7 -0.5
v -1.5 7 -1.5
v -0.5 7 -1.5
v 0.5 7 -1.5
v 1.5 7 -1.5

# faces
f 5/3/1 2/3/1 1/3/1
f 6/4/1 3/4/1 2/4/1
f 6/3/1 2/3/1 5/3/1
f 7/3/1 4/3/1 3/3/1
f 7/4/1 3/4/1 6/4/1
f 8/3/1 4/3/1 7/3/1
f 9/4/1 6/4/1 5/4/1
f 10/3/1 7/3/1 6/3/1
f 10/4/1 6/4/1 9/4/1
f 11/4/1 8/4/1 7/4/1
f 11/3/1 7/3/1 10/3/1
f 12/4/1 8/4/1 11/4/1
f 13/3/1 10/3/1 9/3/1
f 14/4/1 11/4/1 10/4/1
f 14/3/1 10/3/1 13/3/1
f 15/3/1 12/3/1 11/3/1
f 15/4/1 11/4/1 14/4/1
f 16/3/1 12/3/1 15/3/1
f 23/5/1 18/5/1 17/5/1
f 24/6/1 19/6/1 18/6/1
f 24/5/1 18/5/1 23/5/1
f 25/5/1 20/5/1 19/5/1
f 25/6/1 19/6/1 24/6/1
f 26/6/1 21/6/1 20/6/1
f 26/5/1 20/5/1 25/5/1
f 27/5/1 22/5/1 21/5/1
f 27/6/1 21/6/1 26/6/1
f 28/5/1 22/5/1 27/5/1
f 29/6/1 24/6/1 23/6/1
f 30/6/1 24/6/1 29/6/1
f 31/6/1 28/6/1 27/6/1
f 32/6/1 28/6/1 31/6/1
f 33/5/1 30/5/1 29/5/1
f 34/5/1 30/5/1 33/5/1
f 35/5/1 32/5/1 31/5/1
f 36/5/1 32/5/1 35/5/1
f 37/6/1 34/6/1 33/6/1
f 38/6/1 34/6/1 37/6/1
f 41/6/1 36/6/1 35/6/1
f 42/6/1 36/6/1 41/6/1
f 43/5/1 38/5/1 37/5/1
f 44/6/1 39/6/1 38/6/1
f 44/5/1 38/5/1 43/5/1
f 45/5/1 40/5/1 39/5/1
f 45/6/1 39/6/1 44/6/1
f 46/6/1 41/6/1 40/6/1
f 46/5/1 40/5/1 45/5/1
f 47/5/1 42/5/1 41/5/1
f 47/6/1 41/6/1 46/6/1
f 48/5/1 42/5/1 47/5/1
f 53/3/1 50/3/1 49/3/1
f 54/4/1 51/4/1 50/4/1
f 54/3/1 50/3/1 53/3/1
f 55/3/1 52/3/1 51/3/1
f 55/4/1 51/4/1 54/4/1
f 56/3/1 52/3/1 55/3/1
f 61/3/1 58/3/1 57/3/1
f 62/3/1 58/3/1 61/3/1
f 63/3/1 60/3/1 59/3/1
f 64/3/1 60/3/1 63/3/1
f 65/4/1 62/4/1 61/4/1
f 66/4/1 62/4/1 65/4/1
f 67/4/1 64/4/1 63/4/1
f 68/4/1 64/4/1 67/4/1
f 69/3/1 66/3/1 65/3/1
f 70/3/1 66/3/1 69/3/1
f 71/3/1 68/3/1 67/3/1
f 72/3/1 68/3/1 71/3/1
f 77/3/1 74/3/1 73/3/1
f 78/4/1 75/4/1 74/4/1
f 78/3/1 74/3/1 77/3/1
f 79/3/1 76/3/1 75/3/1
f 79/4/1 75/4/1 78/4/1
f 80/3/1 76/3/1 79/3/1
f 81/3/2 82/3/2 85/3/2
f 82/4/2 83/4/2 86/4/2
f 85/3/2 82/3/2 86/3/2
f 83/3/2 84/3/2 87/3/2
f 86/4/2 83/4/2 87/4/2
f 87/3/2 84/3/2 88/3/2
f 89/3/2 90/3/2 93/3/2
f 93/3/2 90/3/2 94/3/2
f 91/3/2 92/3/2 95/3/2
f 95/3/2 92/3/2 96/3/2
f 93/4/2 94/4/2 97/4/2
f 97/4/2 94/4/2 98/4/2
f 95/4/2 96/4/2 99/4/2
f 99/4/2 96/4/2 100/4/2
f 97/3/2 98/3/2 101/3/2
f 101/3/2 98/3/2 102/3/2
f 99/3/2 100/3/2 103/3/2
f 103/3/2 100/3/2 104/3/2
f 105/3/2 106/3/2 109/3/2
f 106/4/2 107/4/2 110/4/2
f 109/3/2 106/3/2 110/3/2
f 107/3/2 108/3/2 111/3/2
f 110/4/2 107/4/2 111/4/2
f 111/3/2 108/3/2 112/3/2
f 113/5/2 114/5/2 119/5/2
f 114/6/2 115/6/2 120/6/2
f 119/5/2 114/5/2 120/5/2
f 115/5/2 116/5/2 121/5/2
f 120/6/2 115/6/2 121/6/2
f 116/6/2 117/6/2 122/6/2
f 121/5/2 116/5/2 122/5/2
f 117/5/2 118/5/2 123/5/2
f 122/6/2 117/6/2 123/6/2
f 123/5/2 118/5/2 124/5/2
f 119/6/2 120/6/2 125/6/2
f 125/6/2 120/6/2 126/6/2
f 123/6/2 124/6/2 127/6/2
f 127/6/2 124/6/2 128/6/2
f 125/5/2 126/5/2 129/5/2
f 129/5/2 126/5/2 130/5/2
f 127/5/2 128/5/2 131/5/2
f 131/5/2 128/5/2 132/5/2
f 129/6/2 130/6/2 133/6/2
f 133/6/2 130/6/2 134/6/2
f 131/6/2 132/6/2 137/6/2
f 137/6/2 132/6/2 138/6/2
f 133/5/2 134/5/2 139/5/2
f 134/6/2 135/6/2 140/6/2
f 139/5/2 134/5/2 140/5/2
f 135/5/2 136/5/2 141/5/2
f 140/6/2 135/6/2 141/6/2
f 136/6/2 137/6/2 142/6/2
f 141/5/2 136/5/2 142/5/2
f 137/5/2 138/5/2 143/5/2
f 142/6/2 137/6/2 143/6/2
f 143/5/2 138/5/2 144/5/2
f 145/3/2 146/3/2 149/3/2
f 146/4/2 147/4/2 150/4/2
f 149/3/2 146/3/2 150/3/2
f 147/3/2 148/3/2 151/3/2
f 150/4/2 147/4/2 151/4/2
f 151/3/2 148/3/2 152/3/2
f 149/4/2 150/4/2 153/4/2
f 150/3/2 151/3/2 154/3/2
f 153/4/2 150/4/2 154/4/2
f 151/4/2 152/4/2 155/4/2
f 154/3/2 151/3/2 155/3/2
f 155/4/2 152/4/2 156/4/2
f 153/3/2 154/3/2 157/3/2
f 154/4/2 155/4/2 158/4/2
f 157/3/2 154/3/2 158/3/2
f 155/3/2 156/3/2 159/3/2
f 158/4/2 155/4/2 159/4/2
f 159/3/2 156/3/2 160/3/2
f 165/3/3 162/3/3 161/3/3
f 166/4/3 163/4/3 162/4/3
f 166/3/3 162/3/3 165/3/3
f 167/3/3 164/3/3 163/3/3
f 167/4/3 163/4/3 166/4/3
f 168/3/3 164/3/3 167/3/3
f 169/4/3 166/4/3 165/4/3
f 170/3/3 167/3/3 166/3/3
f 170/4/3 166/4/3 169/4/3
f 171/4/3 168/4/3 167/4/3
f 171/3/3 167/3/3 170/3/3
f 172/4/3 168/4/3 171/4/3
f 173/3/3 170/3/3 169/3/3
f 174/4/3 171/4/3 170/4/3
f 174/3/3 170/3/3 173/3/3
f 175/3/3 172/3/3 171/3/3
f 175/4/3 171/4/3 174/4/3
f 176/3/3 172/3/3 175/3/3
f 183/5/3 178/5/3 177/5/3
f 184/6/3 179/6/3 178/6/3
f 184/5/3 178/5/3 183/5/3
f 185/5/3 180/5/3 179/5/3
f 185/6/3 179/6/3 184/6/3
f 186/6/3 181/6/3 180/6/3
f 186/5/3 180/5/3 185/5/3
f 187/5/3 182/5/3 181/5/3
f 187/6/3 181/6/3 186/6/3
f 188/5/3 182/5/3 187/5/3
f 189/6/3 184/6/3 183/6/3
f 190/6/3 184/6/3 189/6/3
f 191/6/3 188/6/3 187/6/3
f 192/6/3 188/6/3 191/6/3
f 193/5/3 190/5/3 189/5/3
f 194/5/3 190/5/3 193/5/3
f 195/5/3 192/5/3 191/5/3
f 196/5/3 192/5/3 195/5/3
f 197/6/3 194/6/3 193/6/3
f 198/6/3 194/6/3 197/6/3
f 201/6/3 196/6/3 195/6/3
f 202/6/3 196/6/3 201/6/3
f 203/5/3 198/5/3 197/5/3
f 204/6/3 199/6/3 198/6/3
f 204/5/3 198/5/3 203/5/3
f 205/5/3 200/5/3 199/5/3
f 205/6/3 199/6/3 204/6/3
f 206/6/3 201/6/3 200/6/3
f 206/5/3 200/5/3 205/5/3
f 207/5/3 202/5/3 201/5/3
f 207/6/3 201/6/3 206/6/3
f 208/5/3 202/5/3 207/5/3
f 213/3/3 210/3/3 209/3/3
f 214/4/3 211/4/3 210/4/3
f 214/3/3 210/3/3 213/3/3
f 215/3/3 212/3/3 211/3/3
f 215/4/3 211/4/3 214/4/3
f 216/3/3 212/3/3 215/3/3
f 221/3/3 218/3/3 217/3/3
f 222/3/3 218/3/3 221/3/3
f 223/3/3 220/3/3 219/3/3
f 224/3/3 220/3/3 223/3/3
f 225/4/3 222/4/3 221/4/3
f 226/4/3 222/4/3 225/4/3
f 227/4/3 224/4/3 223/4/3
f 228/4/3 224/4/3 227/4/3
f 229/3/3 226/3/3 225/3/3
f 230/3/3 226/3/3 229/3/3
f 231/3/3 228/3/3 227/3/3
f 232/3/3 228/3/3 231/3/3
f 237/3/3 234/3/3 233/3/3
f 238/4/3 235/4/3 234/4/3
f 238/3/3 234/3/3 237/3/3
f 239/3/3 236/3/3 235/3/3
f 239/4/3 235/4/3 238/4/3
f 240/3/3 236/3/3 239/3/3
f 241/3/4 242/3/4 245/3/4
f 242/4/4 243/4/4 246/4/4
f 245/3/4 242/3/4 246/3/4
f 243/3/4 244/3/4 247/3/4
f 246/4/4 243/4/4 247/4/4
f 247/3/4 244/3/4 248/3/4
f 249/3/4 250/3/4 253/3/4
f 253/3/4 250/3/4 254/3/4
f 251/3/4 252/3/4 255/3/4
f 255/3/4 252/3/4 256/3/4
f 253/4/4 254/4/4 257/4/4
f 257/4/4 254/4/4 258/4/4
f 255/4/4 256/4/4 259/4/4
f 259/4/4 256/4/4 260/4/4
f 257/3/4 258/3/4 261/3/4
f 261/3/4 258/3/4 262/3/4
f 259/3/4 260/3/4 263/3/4
f 263/3/4 260/3/4 264/3/4
f 265/3/4 266/3/4 269/3/4
f 266/4/4 267/4/4 270/4/4
f 269/3/4 266/3/4 270/3/4
f 267/3/4 268/3/4 271/3/4
f 270/4/4 267/4/4 271/4/4
f 271/3/4 268/3/4 272/3/4
f 273/5/4 274/5/4 279/5/4
f 274/6/4 275/6/4 280/6/4
f 279/5/4 274/5/4 280/5/4
f 275/5/4 276/5/4 281/5/4
f 280/6/4 275/6/4 281/6/4
f 276/6/4 277/6/4 282/6/4
f 281/5/4 276/5/4 282/5/4
f 277/5/4 278/5/4 283/5/4
f 282/6/4 277/6/4 283/6/4
f 283/5/4 278/5/4 284/5/4
f 279/6/4 280/6/4 285/6/4
f 285/6/4 280/6/4 286/6/4
f 283/6/4 284/6/4 287/6/4
f 287/6/4 284/6/4 288/6/4
f 285/5/4 286/5/4 289/5/4
f 289/5/4 286/5/4 290/5/4
f 287/5/4 288/5/4 291/5/4
f 291/5/4 288/5/4 292/5/4
f 289/6/4 290/6/4 293/6/4
f 293/6/4 290/6/4 294/6/4
f 291/6/4 292/6/4 297/6/4
f 297/6/4 292/6/4 298/6/4
f 293/5/4 294/5/4 299/5/4
f 294/6/4 295/6/4 300/6/4
f 299/5/4 294/5/4 300/5/4
f 295/5/4 296/5/4 301/5/4
f 300/6/4 295/6/4 301/6/4
f 296/6/4 297/6/4 302/6/4
f 301/5/4 296/5/4 302/5/4
f 297/5/4 298/5/4 303/5/4
f 302/6/4 297/6/4 303/6/4
f 303/5/4 298/5/4 304/5/4
f 305/3/4 306/3/4 309/3/4
f 306/4/4 307/4/4 310/4/4
f 309/3/4 306/3/4 310/3/4
f 307/3/4 308/3/4 311/3/4
f 310/4/4 307/4/4 311/4/4
f 311/3/4 308/3/4 312/3/4
f 309/4/4 310/4/4 313/4/4
f 310/3/4 311/3/4 314/3/4
f 313/4/4 310/4/4 314/4/4
f 311/4/4 312/4/4 315/4/4
f 314/3/4 311/3/4 315/3/4
f 315/4/4 312/4/4 316/4/4
f 313/3/4 314/3/4 317/3/4
f 314/4/4 315/4/4 318/4/4
f 317/3/4 314/3/4 318/3/4
f 315/3/4 316/3/4 319/3/4
f 318/4/4 315/4/4 319/4/4
f 319/3/4 316/3/4 320/3/4
f 325/3/5 322/3/5 321/3/5
f 326/4/5 323/4/5 322/4/5
f 326/3/5 322/3/5 325/3/5
f 327/3/5 324/3/5 323/3/5
f 327/4/5 323/4/5 326/4/5
f 328/3/5 324/3/5 327/3/5
f 329/4/5 326/4/5 325/4/5
f 330/3/5 327/3/5 326/3/5
f 330/4/5 326/4/5 329/4/5
f 331/4/5 328/4/5 327/4/5
f 331/3/5 327/3/5 330/3/5
f 332/4/5 328/4/5 331/4/5
f 333/3/5 330/3/5 329/3/5
f 334/4/5 331/4/5 330/4/5
f 334/3/5 330/3/5 333/3/5
f 335/3/5 332/3/5 331/3/5
f 335/4/5 331/4/5 334/4/5
f 336/3/5 332/3/5 335/3/5
f 343/5/5 338/5/5 337/5/5
f 344/6/5 339/6/5 338/6/5
f 344/5/5 338/5/5 343/5/5
f 345/5/5 340/5/5 339/5/5
f 345/6/5 339/6/5 344/6/5
f 346/6/5 341/6/5 340/6/5
f 346/5/5 340/5/5 345/5/5
f 347/5/5 342/5/5 341/5/5
f 347/6/5 341/6/5 346/6/5
f 348/5/5 342/5/5 347/5/5
f 349/6/5 344/6/5 343/6/5
f 350/6/5 344/6/5 349/6/5
f 351/6/5 348/6/5 347/6/5
f 352/6/5 348/6/5 351/6/5
f 353/5/5 350/5/5 349/5/5
f 354/5/5 350/5/5 353/5/5
f 355/5/5 352/5/5 351/5/5
f 356/5/5 352/5/5 355/5/5
f 357/6/5 354/6/5 353/6/5
f 358/6/5 354/6/5 357/6/5
f 361/6/5 356/6/5 355/6/5
f 362/6/5 356/6/5 361/6/5
f 363/5/5 358/5/5 357/5/5
f 364/6/5 359/6/5 358/6/5
f 364/5/5 358/5/5 363/5/5
f 365/5/5 360/5/5 359/5/5
f 365/6/5 359/6/5 364/6/5
f 366/6/5 361/6/5 360/6/5
f 366/5/5 360/5/5 365/5/5
f 367/5/5 362/5/5 361/5/5
f 367/6/5 361/6/5 366/6/5
f 368/5/5 362/5/5 367/5/5
f 373/3/5 370/3/5 369/3/5
f 374/4/5 371/4/5 370/4/5
f 374/3/5 370/3/5 373/3/5
f 375/3/5 372/3/5 371/3/5
f 375/4/5 371/4/5 374/4/5
f 376/3/5 372/3/5 375/3/5
f 381/3/5 378/3/5 377/3/5
f 382/3/5 378/3/5 381/3/5
f 383/3/5 380/3/5 379/3/5
f 384/3/5 380/3/5 383/3/5
f 385/4/5 382/4/5 381/4/5
f 386/4/5 382/4/5 385/4/5
f 387/4/5 384/4/5 383/4/5
f 388/4/5 384/4/5 387/4/5
f 389/3/5 386/3/5 385/3/5
f 390/3/5 386/3/5 389/3/5
f 391/3/5 388/3/5 387/3/5
f 392/3/5 388/3/5 391/3/5
f 397/3/5 394/3/5 393/3/5
f 398/4/5 395/4/5 394/4/5
f 398/3/5 394/3/5 397/3/5
f 399/3/5 396/3/5 395/3/5
f 399/4/5 395/4/5 398/4/5
f 400/3/5 396/3/5 399/3/5
f 401/3/6 402/3/6 405/3/6
f 402/4/6 403/4/6 406/4/6
f 405/3/6 402/3/6 406/3/6
f 403/3/6 404/3/6 407/3/6
f 406/4/6 403/4/6 407/4/6
f 407/3/6 404/3/6 408/3/6
f 409/3/6 410/3/6 413/3/6
f 413/3/6 410/3/6 414/3/6
f 411/3/6 412/3/6 415/3/6
f 415/3/6 412/3/6 416/3/6
f 413/4/6 414/4/6 417/4/6
f 417/4/6 414/4/6 418/4/6
f 415/4/6 416/4/6 419/4/6
f 419/4/6 416/4/6 420/4/6
f 417/3/6 418/3/6 421/3/6
f 421/3/6 418/3/6 422/3/6
f 419/3/6 420/3/6 423/3/6
f 423/3/6 420/3/6 424/3/6
f 425/3/6 426/3/6 429/3/6
f 426/4/6 427/4/6 430/4/6
f 429/3/6 426/3/6 430/3/6
f 427/3/6 428/3/6 431/3/6
f 430/4/6 427/4/6 431/4/6
f 431/3/6 428/3/6 432/3/6
f 433/5/6 434/5/6 439/5/6
f 434/6/6 435/6/6 440/6/6
f 439/5/6 434/5/6 440/5/6
f 435/5/6 436/5/6 441/5/6
f 440/6/6 435/6/6 441/6/6
f 436/6/6 437/6/6 442/6/6
f 441/5/6 436/5/6 442/5/6
f 437/5/6 438/5/6 443/5/6
f 442/6/6 437/6/6 443/6/6
f 443/5/6 438/5/6 444/5/6
f 439/6/6 440/6/6 445/6/6
f 445/6/6 440/6/6 446/6/6
f 443/6/6 444/6/6 447/6/6
f 447/6/6 444/6/6 448/6/6
f 445/5/6 446/5/6 449/5/6
f 449/5/6 446/5/6 450/5/6
f 447/5/6 448/5/6 451/5/6
f 451/5/6 448/5/6 452/5/6
f 449/6/6 450/6/6 453/6/6
f 453/6/6 450/6/6 454/6/6
f 451/6/6 452/6/6 457/6/6
f 457/6/6 452/6/6 458/6/6
f 453/5/6 454/5/6 459/5/6
f 454/6/6 455/6/6 460/6/6
f 459/5/6 454/5/6 460/5/6
f 455/5/6 456/5/6 461/5/6
f 460/6/6 455/6/6 461/6/6
f 456/6/6 457/6/6 462/6/6
f 461/5/6 456/5/6 462/5/6
f 457/5/6 458/5/6 463/5/6
f 462/6/6 457/6/6 463/6/6
f 463/5/6 458/5/6 464/5/6
f 465/3/6 466/3/6 469/3/6
f 466/4/6 467/4/6 470/4/6
f 469/3/6 466/3/6 470/3/6
f 467/3/6 468/3/6 471/3/6
f 470/4/6 467/4/6 471/4/6
f 471/3/6 468/3/6 472/3/6
f 469/4/6 470/4/6 473/4/6
f 470/3/6 471/3/6 474/3/6
f 473/4/6 470/4/6 474/4/6
f 471/4/6 472/4/6 475/4/6
f 474/3/6 471/3/6 475/3/6
f 475/4/6 472/4/6 476/4/6
f 473/3/6 474/3/6 477/3/6
f 474/4/6 475/4/6 478/4/6
f 477/3/6 474/3/6 478/3/6
f 475/3/6 476/3/6 479/3/6
f 478/4/6 475/4/6 479/4/6
f 479/3/6 476/3/6 480/3/6
