# MagicaVoxel @ Ephtracy

# material
mtllib DroneBallProjectile-Perp.mtl
usemtl palette

# normals
vn -1 0 0
vn 1 0 0
vn 0 0 1
vn 0 0 -1
vn 0 -1 0
vn 0 1 0

# texcoords
vt 0.0214844 0.5
vt 0.0292969 0.5
vt 0.0332031 0.5
vt 0.0371094 0.5
vt 0.0410156 0.5
vt 0.0449219 0.5
vt 0.306641 0.5

# verts
v -3.5 2 1.5
v -3.5 2 -1.5
v -3.5 3 0.5
v -3.5 3 -0.5
v -3.5 4 0.5
v -3.5 4 -0.5
v -3.5 5 1.5
v -3.5 5 -1.5
v -2.5 1 2.5
v -2.5 1 1.5
v -2.5 1 0.5
v -2.5 1 -0.5
v -2.5 1 -1.5
v -2.5 1 -2.5
v -2.5 2 2.5
v -2.5 2 1.5
v -2.5 2 0.5
v -2.5 2 -0.5
v -2.5 2 -1.5
v -2.5 2 -2.5
v -2.5 3 2.5
v -2.5 3 1.5
v -2.5 3 -1.5
v -2.5 3 -2.5
v -2.5 4 2.5
v -2.5 4 1.5
v -2.5 4 -1.5
v -2.5 4 -2.5
v -2.5 5 2.5
v -2.5 5 1.5
v -2.5 5 0.5
v -2.5 5 -0.5
v -2.5 5 -1.5
v -2.5 5 -2.5
v -2.5 6 2.5
v -2.5 6 1.5
v -2.5 6 0.5
v -2.5 6 -0.5
v -2.5 6 -1.5
v -2.5 6 -2.5
v -1.5 0 1.5
v -1.5 0 -1.5
v -1.5 1 1.5
v -1.5 1 0.5
v -1.5 1 -0.5
v -1.5 1 -1.5
v -1.5 2 3.5
v -1.5 2 2.5
v -1.5 2 -2.5
v -1.5 2 -3.5
v -1.5 3 2.5
v -1.5 3 -2.5
v -1.5 4 2.5
v -1.5 4 -2.5
v -1.5 5 3.5
v -1.5 5 2.5
v -1.5 5 -2.5
v -1.5 5 -3.5
v -1.5 6 1.5
v -1.5 6 0.5
v -1.5 6 -0.5
v -1.5 6 -1.5
v -1.5 7 1.5
v -1.5 7 -1.5
v 1.5 0 1.5
v 1.5 0 -1.5
v 1.5 1 1.5
v 1.5 1 0.5
v 1.5 1 -0.5
v 1.5 1 -1.5
v 1.5 2 3.5
v 1.5 2 2.5
v 1.5 2 -2.5
v 1.5 2 -3.5
v 1.5 3 2.5
v 1.5 3 -2.5
v 1.5 4 2.5
v 1.5 4 -2.5
v 1.5 5 3.5
v 1.5 5 2.5
v 1.5 5 -2.5
v 1.5 5 -3.5
v 1.5 6 1.5
v 1.5 6 0.5
v 1.5 6 -0.5
v 1.5 6 -1.5
v 1.5 7 1.5
v 1.5 7 -1.5
v 2.5 1 2.5
v 2.5 1 1.5
v 2.5 1 0.5
v 2.5 1 -0.5
v 2.5 1 -1.5
v 2.5 1 -2.5
v 2.5 2 2.5
v 2.5 2 1.5
v 2.5 2 0.5
v 2.5 2 -0.5
v 2.5 2 -1.5
v 2.5 2 -2.5
v 2.5 3 2.5
v 2.5 3 1.5
v 2.5 3 -1.5
v 2.5 3 -2.5
v 2.5 4 2.5
v 2.5 4 1.5
v 2.5 4 -1.5
v 2.5 4 -2.5
v 2.5 5 2.5
v 2.5 5 1.5
v 2.5 5 0.5
v 2.5 5 -0.5
v 2.5 5 -1.5
v 2.5 5 -2.5
v 2.5 6 2.5
v 2.5 6 1.5
v 2.5 6 0.5
v 2.5 6 -0.5
v 2.5 6 -1.5
v 2.5 6 -2.5
v 3.5 2 1.5
v 3.5 2 -1.5
v 3.5 3 0.5
v 3.5 3 -0.5
v 3.5 4 0.5
v 3.5 4 -0.5
v 3.5 5 1.5
v 3.5 5 -1.5
v -1.5 2 3.5
v -1.5 5 3.5
v -0.5 3 3.5
v -0.5 4 3.5
v 0.5 3 3.5
v 0.5 4 3.5
v 1.5 2 3.5
v 1.5 5 3.5
v -2.5 1 2.5
v -2.5 2 2.5
v -2.5 3 2.5
v -2.5 4 2.5
v -2.5 5 2.5
v -2.5 6 2.5
v -1.5 1 2.5
v -1.5 2 2.5
v -1.5 3 2.5
v -1.5 4 2.5
v -1.5 5 2.5
v -1.5 6 2.5
v -0.5 1 2.5
v -0.5 2 2.5
v -0.5 5 2.5
v -0.5 6 2.5
v 0.5 1 2.5
v 0.5 2 2.5
v 0.5 5 2.5
v 0.5 6 2.5
v 1.5 1 2.5
v 1.5 2 2.5
v 1.5 3 2.5
v 1.5 4 2.5
v 1.5 5 2.5
v 1.5 6 2.5
v 2.5 1 2.5
v 2.5 2 2.5
v 2.5 3 2.5
v 2.5 4 2.5
v 2.5 5 2.5
v 2.5 6 2.5
v -3.5 2 1.5
v -3.5 5 1.5
v -2.5 2 1.5
v -2.5 3 1.5
v -2.5 4 1.5
v -2.5 5 1.5
v -1.5 0 1.5
v -1.5 1 1.5
v -1.5 6 1.5
v -1.5 7 1.5
v -0.5 1 1.5
v -0.5 6 1.5
v 0.5 1 1.5
v 0.5 6 1.5
v 1.5 0 1.5
v 1.5 1 1.5
v 1.5 6 1.5
v 1.5 7 1.5
v 2.5 2 1.5
v 2.5 3 1.5
v 2.5 4 1.5
v 2.5 5 1.5
v 3.5 2 1.5
v 3.5 5 1.5
v -3.5 2 -1.5
v -3.5 5 -1.5
v -2.5 2 -1.5
v -2.5 3 -1.5
v -2.5 4 -1.5
v -2.5 5 -1.5
v -1.5 0 -1.5
v -1.5 1 -1.5
v -1.5 6 -1.5
v -1.5 7 -1.5
v -0.5 1 -1.5
v -0.5 6 -1.5
v 0.5 1 -1.5
v 0.5 6 -1.5
v 1.5 0 -1.5
v 1.5 1 -1.5
v 1.5 6 -1.5
v 1.5 7 -1.5
v 2.5 2 -1.5
v 2.5 3 -1.5
v 2.5 4 -1.5
v 2.5 5 -1.5
v 3.5 2 -1.5
v 3.5 5 -1.5
v -2.5 1 -2.5
v -2.5 2 -2.5
v -2.5 3 -2.5
v -2.5 4 -2.5
v -2.5 5 -2.5
v -2.5 6 -2.5
v -1.5 1 -2.5
v -1.5 2 -2.5
v -1.5 3 -2.5
v -1.5 4 -2.5
v -1.5 5 -2.5
v -1.5 6 -2.5
v -0.5 1 -2.5
v -0.5 2 -2.5
v -0.5 5 -2.5
v -0.5 6 -2.5
v 0.5 1 -2.5
v 0.5 2 -2.5
v 0.5 5 -2.5
v 0.5 6 -2.5
v 1.5 1 -2.5
v 1.5 2 -2.5
v 1.5 3 -2.5
v 1.5 4 -2.5
v 1.5 5 -2.5
v 1.5 6 -2.5
v 2.5 1 -2.5
v 2.5 2 -2.5
v 2.5 3 -2.5
v 2.5 4 -2.5
v 2.5 5 -2.5
v 2.5 6 -2.5
v -1.5 2 -3.5
v -1.5 5 -3.5
v -0.5 3 -3.5
v -0.5 4 -3.5
v 0.5 3 -3.5
v 0.5 4 -3.5
v 1.5 2 -3.5
v 1.5 5 -3.5
v -1.5 0 1.5
v 1.5 0 1.5
v -0.5 0 0.5
v 0.5 0 0.5
v -0.5 0 -0.5
v 0.5 0 -0.5
v -1.5 0 -1.5
v 1.5 0 -1.5
v -2.5 1 2.5
v -1.5 1 2.5
v -0.5 1 2.5
v 0.5 1 2.5
v 1.5 1 2.5
v 2.5 1 2.5
v -2.5 1 1.5
v -1.5 1 1.5
v -0.5 1 1.5
v 0.5 1 1.5
v 1.5 1 1.5
v 2.5 1 1.5
v -2.5 1 0.5
v -1.5 1 0.5
v 1.5 1 0.5
v 2.5 1 0.5
v -2.5 1 -0.5
v -1.5 1 -0.5
v 1.5 1 -0.5
v 2.5 1 -0.5
v -2.5 1 -1.5
v -1.5 1 -1.5
v -0.5 1 -1.5
v 0.5 1 -1.5
v 1.5 1 -1.5
v 2.5 1 -1.5
v -2.5 1 -2.5
v -1.5 1 -2.5
v -0.5 1 -2.5
v 0.5 1 -2.5
v 1.5 1 -2.5
v 2.5 1 -2.5
v -1.5 2 3.5
v 1.5 2 3.5
v -1.5 2 2.5
v -0.5 2 2.5
v 0.5 2 2.5
v 1.5 2 2.5
v -3.5 2 1.5
v -2.5 2 1.5
v 2.5 2 1.5
v 3.5 2 1.5
v -2.5 2 0.5
v 2.5 2 0.5
v -2.5 2 -0.5
v 2.5 2 -0.5
v -3.5 2 -1.5
v -2.5 2 -1.5
v 2.5 2 -1.5
v 3.5 2 -1.5
v -1.5 2 -2.5
v -0.5 2 -2.5
v 0.5 2 -2.5
v 1.5 2 -2.5
v -1.5 2 -3.5
v 1.5 2 -3.5
v -1.5 5 3.5
v 1.5 5 3.5
v -1.5 5 2.5
v -0.5 5 2.5
v 0.5 5 2.5
v 1.5 5 2.5
v -3.5 5 1.5
v -2.5 5 1.5
v 2.5 5 1.5
v 3.5 5 1.5
v -2.5 5 0.5
v 2.5 5 0.5
v -2.5 5 -0.5
v 2.5 5 -0.5
v -3.5 5 -1.5
v -2.5 5 -1.5
v 2.5 5 -1.5
v 3.5 5 -1.5
v -1.5 5 -2.5
v -0.5 5 -2.5
v 0.5 5 -2.5
v 1.5 5 -2.5
v -1.5 5 -3.5
v 1.5 5 -3.5
v -2.5 6 2.5
v -1.5 6 2.5
v -0.5 6 2.5
v 0.5 6 2.5
v 1.5 6 2.5
v 2.5 6 2.5
v -2.5 6 1.5
v -1.5 6 1.5
v -0.5 6 1.5
v 0.5 6 1.5
v 1.5 6 1.5
v 2.5 6 1.5
v -2.5 6 0.5
v -1.5 6 0.5
v 1.5 6 0.5
v 2.5 6 0.5
v -2.5 6 -0.5
v -1.5 6 -0.5
v 1.5 6 -0.5
v 2.5 6 -0.5
v -2.5 6 -1.5
v -1.5 6 -1.5
v -0.5 6 -1.5
v 0.5 6 -1.5
v 1.5 6 -1.5
v 2.5 6 -1.5
v -2.5 6 -2.5
v -1.5 6 -2.5
v -0.5 6 -2.5
v 0.5 6 -2.5
v 1.5 6 -2.5
v 2.5 6 -2.5
v -1.5 7 1.5
v 1.5 7 1.5
v -0.5 7 0.5
v 0.5 7 0.5
v -0.5 7 -0.5
v 0.5 7 -0.5
v -1.5 7 -1.5
v 1.5 7 -1.5

# faces
f 3/3/1 2/3/1 1/3/1
f 4/3/1 2/3/1 3/3/1
f 5/3/1 3/3/1 1/3/1
f 5/4/1 4/4/1 3/4/1
f 6/3/1 2/3/1 4/3/1
f 6/4/1 4/4/1 5/4/1
f 7/3/1 5/3/1 1/3/1
f 7/3/1 6/3/1 5/3/1
f 8/3/1 2/3/1 6/3/1
f 8/3/1 6/3/1 7/3/1
f 15/5/1 10/5/1 9/5/1
f 16/4/1 11/4/1 10/4/1
f 16/5/1 10/5/1 15/5/1
f 17/6/1 12/6/1 11/6/1
f 17/4/1 11/4/1 16/4/1
f 18/4/1 13/4/1 12/4/1
f 18/6/1 12/6/1 17/6/1
f 19/5/1 14/5/1 13/5/1
f 19/4/1 13/4/1 18/4/1
f 20/5/1 14/5/1 19/5/1
f 21/4/1 16/4/1 15/4/1
f 22/4/1 16/4/1 21/4/1
f 23/4/1 20/4/1 19/4/1
f 24/4/1 20/4/1 23/4/1
f 25/6/1 22/6/1 21/6/1
f 26/6/1 22/6/1 25/6/1
f 27/6/1 24/6/1 23/6/1
f 28/6/1 24/6/1 27/6/1
f 29/4/1 26/4/1 25/4/1
f 30/4/1 26/4/1 29/4/1
f 33/4/1 28/4/1 27/4/1
f 34/4/1 28/4/1 33/4/1
f 35/5/1 30/5/1 29/5/1
f 36/4/1 31/4/1 30/4/1
f 36/5/1 30/5/1 35/5/1
f 37/6/1 32/6/1 31/6/1
f 37/4/1 31/4/1 36/4/1
f 38/4/1 33/4/1 32/4/1
f 38/6/1 32/6/1 37/6/1
f 39/5/1 34/5/1 33/5/1
f 39/4/1 33/4/1 38/4/1
f 40/5/1 34/5/1 39/5/1
f 43/3/1 42/3/1 41/3/1
f 44/3/1 42/3/1 43/3/1
f 45/3/1 42/3/1 44/3/1
f 46/3/1 42/3/1 45/3/1
f 51/3/1 48/3/1 47/3/1
f 52/3/1 50/3/1 49/3/1
f 53/3/1 51/3/1 47/3/1
f 54/3/1 50/3/1 52/3/1
f 55/3/1 53/3/1 47/3/1
f 56/3/1 53/3/1 55/3/1
f 57/3/1 50/3/1 54/3/1
f 58/3/1 50/3/1 57/3/1
f 63/3/1 60/3/1 59/3/1
f 63/3/1 62/3/1 61/3/1
f 63/3/1 61/3/1 60/3/1
f 64/3/1 62/3/1 63/3/1
f 65/3/2 66/3/2 67/3/2
f 67/3/2 66/3/2 68/3/2
f 68/3/2 66/3/2 69/3/2
f 69/3/2 66/3/2 70/3/2
f 71/3/2 72/3/2 75/3/2
f 73/3/2 74/3/2 76/3/2
f 71/3/2 75/3/2 77/3/2
f 76/3/2 74/3/2 78/3/2
f 71/3/2 77/3/2 79/3/2
f 79/3/2 77/3/2 80/3/2
f 78/3/2 74/3/2 81/3/2
f 81/3/2 74/3/2 82/3/2
f 83/3/2 84/3/2 87/3/2
f 85/3/2 86/3/2 87/3/2
f 84/3/2 85/3/2 87/3/2
f 87/3/2 86/3/2 88/3/2
f 89/5/2 90/5/2 95/5/2
f 90/4/2 91/4/2 96/4/2
f 95/5/2 90/5/2 96/5/2
f 91/6/2 92/6/2 97/6/2
f 96/4/2 91/4/2 97/4/2
f 92/4/2 93/4/2 98/4/2
f 97/6/2 92/6/2 98/6/2
f 93/5/2 94/5/2 99/5/2
f 98/4/2 93/4/2 99/4/2
f 99/5/2 94/5/2 100/5/2
f 95/4/2 96/4/2 101/4/2
f 101/4/2 96/4/2 102/4/2
f 99/4/2 100/4/2 103/4/2
f 103/4/2 100/4/2 104/4/2
f 101/6/2 102/6/2 105/6/2
f 105/6/2 102/6/2 106/6/2
f 103/6/2 104/6/2 107/6/2
f 107/6/2 104/6/2 108/6/2
f 105/4/2 106/4/2 109/4/2
f 109/4/2 106/4/2 110/4/2
f 107/4/2 108/4/2 113/4/2
f 113/4/2 108/4/2 114/4/2
f 109/5/2 110/5/2 115/5/2
f 110/4/2 111/4/2 116/4/2
f 115/5/2 110/5/2 116/5/2
f 111/6/2 112/6/2 117/6/2
f 116/4/2 111/4/2 117/4/2
f 112/4/2 113/4/2 118/4/2
f 117/6/2 112/6/2 118/6/2
f 113/5/2 114/5/2 119/5/2
f 118/4/2 113/4/2 119/4/2
f 119/5/2 114/5/2 120/5/2
f 121/3/2 122/3/2 123/3/2
f 123/3/2 122/3/2 124/3/2
f 121/3/2 123/3/2 125/3/2
f 123/4/2 124/4/2 125/4/2
f 124/3/2 122/3/2 126/3/2
f 125/4/2 124/4/2 126/4/2
f 121/3/2 125/3/2 127/3/2
f 125/3/2 126/3/2 127/3/2
f 126/3/2 122/3/2 128/3/2
f 127/3/2 126/3/2 128/3/2
f 131/3/3 130/3/3 129/3/3
f 132/3/3 130/3/3 131/3/3
f 133/3/3 131/3/3 129/3/3
f 133/4/3 132/4/3 131/4/3
f 134/3/3 130/3/3 132/3/3
f 134/4/3 132/4/3 133/4/3
f 135/3/3 133/3/3 129/3/3
f 135/3/3 134/3/3 133/3/3
f 136/3/3 130/3/3 134/3/3
f 136/3/3 134/3/3 135/3/3
f 143/5/3 138/5/3 137/5/3
f 144/4/3 139/4/3 138/4/3
f 144/5/3 138/5/3 143/5/3
f 145/6/3 140/6/3 139/6/3
f 145/4/3 139/4/3 144/4/3
f 146/4/3 141/4/3 140/4/3
f 146/6/3 140/6/3 145/6/3
f 147/5/3 142/5/3 141/5/3
f 147/4/3 141/4/3 146/4/3
f 148/5/3 142/5/3 147/5/3
f 149/4/3 144/4/3 143/4/3
f 150/4/3 144/4/3 149/4/3
f 151/4/3 148/4/3 147/4/3
f 152/4/3 148/4/3 151/4/3
f 153/6/3 150/6/3 149/6/3
f 154/6/3 150/6/3 153/6/3
f 155/6/3 152/6/3 151/6/3
f 156/6/3 152/6/3 155/6/3
f 157/4/3 154/4/3 153/4/3
f 158/4/3 154/4/3 157/4/3
f 161/4/3 156/4/3 155/4/3
f 162/4/3 156/4/3 161/4/3
f 163/5/3 158/5/3 157/5/3
f 164/4/3 159/4/3 158/4/3
f 164/5/3 158/5/3 163/5/3
f 165/6/3 160/6/3 159/6/3
f 165/4/3 159/4/3 164/4/3
f 166/4/3 161/4/3 160/4/3
f 166/6/3 160/6/3 165/6/3
f 167/5/3 162/5/3 161/5/3
f 167/4/3 161/4/3 166/4/3
f 168/5/3 162/5/3 167/5/3
f 171/3/3 170/3/3 169/3/3
f 172/3/3 170/3/3 171/3/3
f 173/3/3 170/3/3 172/3/3
f 174/3/3 170/3/3 173/3/3
f 179/3/3 176/3/3 175/3/3
f 180/3/3 178/3/3 177/3/3
f 181/3/3 179/3/3 175/3/3
f 182/3/3 178/3/3 180/3/3
f 183/3/3 181/3/3 175/3/3
f 184/3/3 181/3/3 183/3/3
f 185/3/3 178/3/3 182/3/3
f 186/3/3 178/3/3 185/3/3
f 191/3/3 188/3/3 187/3/3
f 191/3/3 190/3/3 189/3/3
f 191/3/3 189/3/3 188/3/3
f 192/3/3 190/3/3 191/3/3
f 193/3/4 194/3/4 195/3/4
f 195/3/4 194/3/4 196/3/4
f 196/3/4 194/3/4 197/3/4
f 197/3/4 194/3/4 198/3/4
f 199/3/4 200/3/4 203/3/4
f 201/3/4 202/3/4 204/3/4
f 199/3/4 203/3/4 205/3/4
f 204/3/4 202/3/4 206/3/4
f 199/3/4 205/3/4 207/3/4
f 207/3/4 205/3/4 208/3/4
f 206/3/4 202/3/4 209/3/4
f 209/3/4 202/3/4 210/3/4
f 211/3/4 212/3/4 215/3/4
f 213/3/4 214/3/4 215/3/4
f 212/3/4 213/3/4 215/3/4
f 215/3/4 214/3/4 216/3/4
f 217/5/4 218/5/4 223/5/4
f 218/4/4 219/4/4 224/4/4
f 223/5/4 218/5/4 224/5/4
f 219/6/4 220/6/4 225/6/4
f 224/4/4 219/4/4 225/4/4
f 220/4/4 221/4/4 226/4/4
f 225/6/4 220/6/4 226/6/4
f 221/5/4 222/5/4 227/5/4
f 226/4/4 221/4/4 227/4/4
f 227/5/4 222/5/4 228/5/4
f 223/4/4 224/4/4 229/4/4
f 229/4/4 224/4/4 230/4/4
f 227/4/4 228/4/4 231/4/4
f 231/4/4 228/4/4 232/4/4
f 229/6/4 230/6/4 233/6/4
f 233/6/4 230/6/4 234/6/4
f 231/6/4 232/6/4 235/6/4
f 235/6/4 232/6/4 236/6/4
f 233/4/4 234/4/4 237/4/4
f 237/4/4 234/4/4 238/4/4
f 235/4/4 236/4/4 241/4/4
f 241/4/4 236/4/4 242/4/4
f 237/5/4 238/5/4 243/5/4
f 238/4/4 239/4/4 244/4/4
f 243/5/4 238/5/4 244/5/4
f 239/6/4 240/6/4 245/6/4
f 244/4/4 239/4/4 245/4/4
f 240/4/4 241/4/4 246/4/4
f 245/6/4 240/6/4 246/6/4
f 241/5/4 242/5/4 247/5/4
f 246/4/4 241/4/4 247/4/4
f 247/5/4 242/5/4 248/5/4
f 249/3/4 250/3/4 251/3/4
f 251/3/4 250/3/4 252/3/4
f 249/3/4 251/3/4 253/3/4
f 251/4/4 252/4/4 253/4/4
f 252/3/4 250/3/4 254/3/4
f 253/4/4 252/4/4 254/4/4
f 249/3/4 253/3/4 255/3/4
f 253/3/4 254/3/4 255/3/4
f 254/3/4 250/3/4 256/3/4
f 255/3/4 254/3/4 256/3/4
f 259/3/5 258/3/5 257/3/5
f 260/3/5 258/3/5 259/3/5
f 261/3/5 259/3/5 257/3/5
f 261/4/5 260/4/5 259/4/5
f 262/3/5 258/3/5 260/3/5
f 262/4/5 260/4/5 261/4/5
f 263/3/5 261/3/5 257/3/5
f 263/3/5 262/3/5 261/3/5
f 264/3/5 258/3/5 262/3/5
f 264/3/5 262/3/5 263/3/5
f 271/5/5 266/5/5 265/5/5
f 272/4/5 267/4/5 266/4/5
f 272/5/5 266/5/5 271/5/5
f 273/6/5 268/6/5 267/6/5
f 273/4/5 267/4/5 272/4/5
f 274/4/5 269/4/5 268/4/5
f 274/6/5 268/6/5 273/6/5
f 275/5/5 270/5/5 269/5/5
f 275/4/5 269/4/5 274/4/5
f 276/5/5 270/5/5 275/5/5
f 277/4/5 272/4/5 271/4/5
f 278/4/5 272/4/5 277/4/5
f 279/4/5 276/4/5 275/4/5
f 280/4/5 276/4/5 279/4/5
f 281/6/5 278/6/5 277/6/5
f 282/6/5 278/6/5 281/6/5
f 283/6/5 280/6/5 279/6/5
f 284/6/5 280/6/5 283/6/5
f 285/4/5 282/4/5 281/4/5
f 286/4/5 282/4/5 285/4/5
f 289/4/5 284/4/5 283/4/5
f 290/4/5 284/4/5 289/4/5
f 291/5/5 286/5/5 285/5/5
f 292/4/5 287/4/5 286/4/5
f 292/5/5 286/5/5 291/5/5
f 293/6/5 288/6/5 287/6/5
f 293/4/5 287/4/5 292/4/5
f 294/4/5 289/4/5 288/4/5
f 294/6/5 288/6/5 293/6/5
f 295/5/5 290/5/5 289/5/5
f 295/4/5 289/4/5 294/4/5
f 296/5/5 290/5/5 295/5/5
f 299/3/5 298/3/5 297/3/5
f 300/3/5 298/3/5 299/3/5
f 301/3/5 298/3/5 300/3/5
f 302/3/5 298/3/5 301/3/5
f 307/3/5 304/3/5 303/3/5
f 308/3/5 306/3/5 305/3/5
f 309/3/5 307/3/5 303/3/5
f 310/3/5 306/3/5 308/3/5
f 311/3/5 309/3/5 303/3/5
f 312/3/5 309/3/5 311/3/5
f 313/3/5 306/3/5 310/3/5
f 314/3/5 306/3/5 313/3/5
f 319/3/5 316/3/5 315/3/5
f 319/3/5 318/3/5 317/3/5
f 319/3/5 317/3/5 316/3/5
f 320/3/5 318/3/5 319/3/5
f 321/3/6 322/3/6 323/3/6
f 323/3/6 322/3/6 324/3/6
f 324/3/6 322/3/6 325/3/6
f 325/3/6 322/3/6 326/3/6
f 327/3/6 328/3/6 331/3/6
f 329/3/6 330/3/6 332/3/6
f 327/3/6 331/3/6 333/3/6
f 332/3/6 330/3/6 334/3/6
f 327/3/6 333/3/6 335/3/6
f 335/3/6 333/3/6 336/3/6
f 334/3/6 330/3/6 337/3/6
f 337/3/6 330/3/6 338/3/6
f 339/3/6 340/3/6 343/3/6
f 341/3/6 342/3/6 343/3/6
f 340/3/6 341/3/6 343/3/6
f 343/3/6 342/3/6 344/3/6
f 345/5/6 346/5/6 351/5/6
f 346/4/6 347/4/6 352/4/6
f 351/5/6 346/5/6 352/5/6
f 347/6/6 348/6/6 353/6/6
f 352/4/6 347/4/6 353/4/6
f 348/4/6 349/4/6 354/4/6
f 353/6/6 348/6/6 354/6/6
f 349/5/6 350/5/6 355/5/6
f 354/4/6 349/4/6 355/4/6
f 355/5/6 350/5/6 356/5/6
f 351/4/6 352/4/6 357/4/6
f 357/4/6 352/4/6 358/4/6
f 355/4/6 356/4/6 359/4/6
f 359/4/6 356/4/6 360/4/6
f 357/6/6 358/6/6 361/6/6
f 361/6/6 358/6/6 362/6/6
f 359/6/6 360/6/6 363/6/6
f 363/6/6 360/6/6 364/6/6
f 361/4/6 362/4/6 365/4/6
f 365/4/6 362/4/6 366/4/6
f 363/4/6 364/4/6 369/4/6
f 369/4/6 364/4/6 370/4/6
f 365/5/6 366/5/6 371/5/6
f 366/4/6 367/4/6 372/4/6
f 371/5/6 366/5/6 372/5/6
f 367/6/6 368/6/6 373/6/6
f 372/4/6 367/4/6 373/4/6
f 368/4/6 369/4/6 374/4/6
f 373/6/6 368/6/6 374/6/6
f 369/5/6 370/5/6 375/5/6
f 374/4/6 369/4/6 375/4/6
f 375/5/6 370/5/6 376/5/6
f 377/3/6 378/3/6 379/3/6
f 379/3/6 378/3/6 380/3/6
f 377/3/6 379/3/6 381/3/6
f 379/4/6 380/4/6 381/4/6
f 380/3/6 378/3/6 382/3/6
f 381/4/6 380/4/6 382/4/6
f 377/3/6 381/3/6 383/3/6
f 381/3/6 382/3/6 383/3/6
f 382/3/6 378/3/6 384/3/6
f 383/3/6 382/3/6 384/3/6
